<svg width="895" height="129" viewBox="0 0 895 129" fill="none" xmlns="http://www.w3.org/2000/svg">
<path d="M893.5 7.00244H0.5V67.5024V128.002H893.5V7.00244Z" fill="#764C24" stroke="#764C24"/>
<path d="M2 14.5024V1.00244L893.5 3.00244V22.0024L886 21.5024V16.0024L874.5 15.0024V21.5024L868.5 22.0024V29.5024L861 28.0024L859 22.0024L854.5 20.5024L852.5 15.0024L841.5 16.0024V22.0024H828.5L827 29.5024L813.5 28.0024V22.0024L801 21.5024L800 15.0024L776 16.0024V20.5024L762 22.0024V29.5024H753.5V22.0024H749V15.0024L742.5 13.5024V22.0024H731V28.0024H709.5L708 22.0024L702 20.5024V16.0024H690.5L689 22.0024H682.5V28.0024H676V22.0024L669 20.5024L667.5 16.0024H657.5L656 22.0024H645L642 29.5024L629 28.0024V22.0024H616.5V16.0024H590V22.0024H579V29.5024H570L568.5 22.0024L564 20.5024L565.5 16.0024L558 15.0024L557 22.0024L546 20.5024L544 29.5024L523 28.0024V22.0024H517L514 16.0024H506L504 22.0024H498.5L500.5 29.5024H491.5C490.3 29.5024 489.667 24.5024 489.5 22.0024L483.5 23.5024L482 14.5024H472.5L471 20.5024L458.5 22.0024V29.5024H443.5V23.5024L431 22.0024V16.0024L404.5 14.5024V22.0024L394 23.5024V28.0024H385C383.8 28.0024 383.5 24.0024 383.5 22.0024L379 20.5024L377.5 16.0024H374L372 22.0024H361.5V29.5024C354.333 29.5024 339.6 29.2024 338 28.0024C336.4 26.8024 337.333 23.5024 338 22.0024L330.5 20.5024V14.5024C327.5 15.0024 321.2 15.7024 320 14.5024C318.8 13.3024 320.5 16.6691 321.5 18.5024L313.5 22.0024V29.5024L305.5 28.0024V23.5024L297.5 22.0024V14.5024H288L286.5 22.0024H274V29.5024C270.167 29.5024 262.1 29.2024 260.5 28.0024C258.9 26.8024 257.5 24.5024 257 23.5024H246L244 16.0024H222L219 22.0024H208.5L206.5 29.5024C205 30.1691 201.8 31.1024 201 29.5024C200.2 27.9024 199 24.8358 198.5 23.5024L194 22.0024L196 16.0024H186.5C184.1 16.0024 185.5 20.0024 186.5 22.0024H175.5L173.5 28.0024C167.833 28.5024 156.1 29.5024 154.5 29.5024C152.9 29.5024 152.833 25.5024 153 23.5024L149 22.0024L144.5 16.0024L135.5 14.5024L132.5 22.0024H129L126.5 29.5024H121V22.0024L114 23.5024V14.5024H102V22.0024H88.5V29.5024L77 31.5024L71.5 23.5024L62 22.0024L58 14.5024H36.5L34.5 22.0024L24 23.5024L21 29.5024H16L12 22.0024L9 20.0024V14.5024H2Z" fill="#1EDD51" stroke="#1EDD51" stroke-width="2"/>
</svg>
