<svg width="895" height="538" viewBox="0 0 895 538" fill="none" xmlns="http://www.w3.org/2000/svg">
<path d="M0.5 0.5V536.5L894 537V0.5H0.5Z" fill="url(#paint0_linear_231_277)" stroke="black"/>
<path d="M893.5 415.5H0.5V476V536.5H893.5V415.5Z" fill="#764C24" stroke="#764C24"/>
<path d="M2 423V409.5L893.5 411.5V430.5L886 430V424.5L874.5 423.5V430L868.5 430.5V438L861 436.5L859 430.5L854.5 429L852.5 423.5L841.5 424.5V430.5H828.5L827 438L813.5 436.5V430.5L801 430L800 423.5L776 424.5V429L762 430.5V438H753.5V430.5H749V423.5L742.5 422V430.5H731V436.5H709.5L708 430.5L702 429V424.5H690.5L689 430.5H682.5V436.5H676V430.5L669 429L667.5 424.5H657.5L656 430.5H645L642 438L629 436.5V430.5H616.5V424.5H590V430.5H579V438H570L568.5 430.5L564 429L565.5 424.5L558 423.5L557 430.5L546 429L544 438L523 436.5V430.5H517L514 424.5H506L504 430.5H498.5L500.5 438H491.5C490.3 438 489.667 433 489.5 430.5L483.5 432L482 423H472.5L471 429L458.5 430.5V438H443.5V432L431 430.5V424.5L404.5 423V430.5L394 432V436.5H385C383.8 436.5 383.5 432.5 383.5 430.5L379 429L377.5 424.5H374L372 430.5H361.5V438C354.333 438 339.6 437.7 338 436.5C336.4 435.3 337.333 432 338 430.5L330.5 429V423C327.5 423.5 321.2 424.2 320 423C318.8 421.8 320.5 425.167 321.5 427L313.5 430.5V438L305.5 436.5V432L297.5 430.5V423H288L286.5 430.5H274V438C270.167 438 262.1 437.7 260.5 436.5C258.9 435.3 257.5 433 257 432H246L244 424.5H222L219 430.5H208.5L206.5 438C205 438.667 201.8 439.6 201 438C200.2 436.4 199 433.333 198.5 432L194 430.5L196 424.5H186.5C184.1 424.5 185.5 428.5 186.5 430.5H175.5L173.5 436.5C167.833 437 156.1 438 154.5 438C152.9 438 152.833 434 153 432L149 430.5L144.5 424.5L135.5 423L132.5 430.5H129L126.5 438H121V430.5L114 432V423H102V430.5H88.5V438L77 440L71.5 432L62 430.5L58 423H36.5L34.5 430.5L24 432L21 438H16L12 430.5L9 428.5V423H2Z" fill="#1EDD51" stroke="#1EDD51" stroke-width="2"/>
<path d="M757.284 177.421L757.328 174.918L761.028 174.148L771.11 159.72L775.803 148.953L779.26 138.582L782.757 149.492L787.08 159.998C787.08 159.998 793.115 170.186 795.864 173.085C798.613 175.985 801.159 174.846 801.159 174.846L801.101 178.183L757.284 177.421Z" fill="#344691" stroke="black" stroke-width="0.5"/>
<path d="M741.584 232.224L708.005 231.64L716.062 215.925L726.162 176.88L732.851 216.217L741.584 232.224Z" fill="#344691" stroke="black" stroke-width="0.5"/>
<path d="M536.249 285.815L502.67 285.23L508.533 277.822L520.015 230.039L529.418 278.185L536.249 285.815Z" fill="#344691"/>
<path d="M520.015 230.039L529.418 278.185L536.249 285.815L502.67 285.23L508.533 277.822L520.015 230.039ZM520.015 230.039L520.138 222.948" stroke="black" stroke-width="0.5"/>
<path d="M612.16 231.224L576.533 230.605L581.542 225.267L595.488 177.11L606.09 226.946L612.16 231.224Z" fill="#344691"/>
<path d="M625.926 146.346L626.005 141.758L630.51 141.836L638.845 133.636L660.93 88.5406L678.266 128.063L690.297 142.876L696.44 142.983L696.36 147.571L625.926 146.346Z" fill="#344691"/>
<path d="M612.16 231.224L576.533 230.605L581.542 225.267L595.488 177.11L606.09 226.946L612.16 231.224Z" stroke="black" stroke-width="0.5"/>
<path d="M625.926 146.346L626.005 141.758L630.51 141.836L638.845 133.636L660.93 88.5406L678.266 128.063L690.297 142.876L696.44 142.983L696.36 147.571L625.926 146.346Z" stroke="black" stroke-width="0.5"/>
<path d="M502.387 301.498L508.134 300.764L508.403 285.33L529.287 285.694L529.026 300.71L535.556 302.075L535.063 330.439C535.063 330.439 533.384 332.23 532.936 334.992C532.488 337.754 532.798 342.917 532.798 342.917L539.35 343.031C539.35 343.031 539.837 340.02 543.122 338.09C545.192 336.874 546.822 337.32 546.822 337.32L555.41 184.397L552.403 181.367L552.875 154.255L559.427 154.369L559.296 161.877L565.439 161.984L565.569 154.476L571.712 154.582L571.581 162.091L578.543 162.212L578.673 154.704L585.225 154.818L585.095 162.326L584.754 181.93L582.663 184.397L581.937 226.109L577.352 230.619L582.676 230.712L605.608 231.111L605.311 248.213L611.453 248.319L611.025 272.929L608.919 276.231L608.811 282.488L622.784 279.81L624.744 167.188L634.594 166.108L634.935 146.503L686.122 147.394L685.781 166.998L694.768 168.406L695.475 198.46L695.242 211.808L716.946 212.185L715.645 216.335L708.408 232.065L741.577 232.642L733.253 216.642L732.507 212.456L753.801 212.827L750.608 231.547L750.303 249.066L756.036 249.166L756.174 241.241L764.364 241.383L765.851 203.022L759.781 198.744L760.151 177.471L797.825 178.127L797.872 198.99L791.24 203.464L790.572 241.839L797.124 241.953L797.001 249.044L803.553 249.158L803.676 242.067L814.733 242.259L814.595 250.185L824.013 250.348L822.434 246.983L823.373 216.541L831.153 216.676L831.023 224.184L836.346 224.277L836.477 216.768L843.029 216.882L842.891 224.808L847.805 224.893L847.936 217.385L856.126 217.528L855.596 247.977L853.907 250.869L851.745 375.17L856.078 408.625L815.552 407.085L818.277 391.695L822.469 292.046C822.469 292.046 812.356 283.834 805.078 279.226C797.8 274.619 791.212 272.549 783.11 270.499C775.008 268.45 739.308 268.903 739.308 268.903L739.192 275.576L737.488 279.302L736.371 343.538L814.176 344.892L808.305 352.717L807.347 407.777L700.831 408.549L608.654 409.216L502.548 409.985L501.872 331.114L502.387 301.498Z" fill="#FDC59A"/>
<path d="M546.822 337.32L555.41 184.397L552.403 181.367L552.875 154.255L559.427 154.369L559.296 161.877L565.439 161.984L565.569 154.476L571.712 154.582L571.581 162.091L578.543 162.212L578.673 154.704L585.225 154.818L585.095 162.326L584.754 181.93L582.663 184.397L581.937 226.109L577.352 230.619L582.676 230.712M546.822 337.32C546.822 337.32 545.192 336.874 543.122 338.09C539.837 340.02 539.35 343.031 539.35 343.031L532.798 342.917C532.798 342.917 532.488 337.754 532.936 334.992C533.384 332.23 535.063 330.439 535.063 330.439L535.556 302.075L529.026 300.71L529.287 285.694L508.403 285.33L508.134 300.764L502.387 301.498L501.872 331.114L502.548 409.985L608.654 409.216M546.822 337.32L551.736 337.405L551.831 331.983L558.383 332.097L558.288 337.519L564.431 337.626L564.525 332.204L570.668 332.311L570.573 337.733L575.487 337.819L577.587 287.786L577.797 275.689L578.262 248.994L582.415 245.728L582.676 230.712M582.676 230.712L605.608 231.111L605.311 248.213L611.453 248.319L611.025 272.929L608.919 276.231L608.811 282.488M622.784 279.81L624.744 167.188L634.594 166.108L634.935 146.503L686.122 147.394L685.781 166.998L694.768 168.406L695.475 198.46L695.242 211.808L716.946 212.185L715.645 216.335L708.408 232.065M622.784 279.81L608.811 282.488M622.784 279.81C622.784 279.81 636.758 277.132 659.303 276.273C681.847 275.413 709.009 282.562 709.009 282.562M608.811 282.488C607.037 305.962 606.896 345.458 606.722 355.469C606.504 367.983 606.889 392.95 608.654 409.216M764.364 241.383L765.183 241.397L765.06 248.488L770.383 248.581L770.507 241.49L781.973 241.689L781.849 248.78L787.992 248.887L788.115 241.796L790.572 241.839M764.364 241.383L756.174 241.241L756.036 249.166L750.303 249.066L750.608 231.547L753.801 212.827L732.507 212.456L733.253 216.642L741.577 232.642M764.364 241.383L765.851 203.022L759.781 198.744L760.151 177.471L797.825 178.127L797.872 198.99L791.24 203.464L790.572 241.839M790.572 241.839L797.124 241.953L797.001 249.044L803.553 249.158L803.676 242.067L814.733 242.259L814.595 250.185L824.013 250.348L822.434 246.983L823.373 216.541L831.153 216.676L831.023 224.184L836.346 224.277L836.477 216.768L843.029 216.882L842.891 224.808L847.805 224.893L847.936 217.385L856.126 217.528L855.596 247.977L853.907 250.869L851.745 375.17L856.078 408.625L815.552 407.085L818.277 391.695L822.469 292.046C822.469 292.046 812.356 283.834 805.078 279.226C797.8 274.619 791.212 272.549 783.11 270.499C775.008 268.45 739.308 268.903 739.308 268.903M741.577 232.642L735.735 238.799L735.605 246.307L739.62 250.966L739.192 275.576L737.488 279.302L736.371 343.538L814.176 344.892L808.305 352.717L807.347 407.777L700.831 408.549M741.577 232.642L708.408 232.065M708.408 232.065L711.589 237.544L711.459 245.052L707.262 250.821L707.646 275.862L709.226 279.228L709.009 282.562M700.831 408.549L709.009 282.562M700.831 408.549L608.654 409.216" stroke="black"/>
<path opacity="0.64" d="M693.664 278.957L708.758 282.557L709.225 279.227L707.229 276.272L707.345 269.598L693.831 269.363L693.664 278.957Z" fill="white" stroke="black" stroke-width="0.5"/>
<path d="M531.427 209.792L520.78 209.607L520.406 217.528L530.85 219.379L528.071 214.324L531.427 209.792Z" fill="#DA4B51"/>
<path d="M520.131 223.365L520.406 217.528M520.406 217.528L520.78 209.607L531.427 209.792L528.071 214.324L530.85 219.379L520.406 217.528Z" stroke="black" stroke-width="0.5"/>
<path d="M790.132 125.837L779.485 125.652L779.112 133.573L789.556 135.423L786.777 130.368L790.132 125.837Z" fill="#DA4B51"/>
<path d="M778.836 139.409L779.112 133.573M779.112 133.573L779.485 125.652L790.132 125.837L786.777 130.368L789.556 135.423L779.112 133.573Z" stroke="black" stroke-width="0.5"/>
<path d="M673.038 75.3994L662.391 75.2142L662.017 83.1353L672.461 84.986L669.682 79.9307L673.038 75.3994Z" fill="#DA4B51"/>
<path d="M661.742 88.9719L662.017 83.1353M662.017 83.1353L662.391 75.2142L673.038 75.3994L669.682 79.9307L672.461 84.986L662.017 83.1353Z" stroke="black" stroke-width="0.5"/>
<path d="M606.784 163.537L596.137 163.352L595.763 171.273L606.207 173.124L603.428 168.068L606.784 163.537Z" fill="#DA4B51"/>
<path d="M595.488 177.11L595.763 171.273M595.763 171.273L596.137 163.352L606.784 163.537L603.428 168.068L606.207 173.124L595.763 171.273Z" stroke="black" stroke-width="0.5"/>
<path d="M507.061 315.349L506.902 324.525L515.501 324.675L515.653 315.915C515.653 315.915 513.243 311.415 511.221 311.666C509.2 311.916 507.061 315.349 507.061 315.349Z" fill="#5A5A79"/>
<path d="M521.803 315.605L521.644 324.782L530.653 324.938L530.396 316.172C530.396 316.172 528.115 311.866 525.964 311.922C523.812 311.978 521.803 315.605 521.803 315.605Z" fill="#5A5A79"/>
<path d="M507.061 315.349L506.902 324.525L515.501 324.675L515.653 315.915C515.653 315.915 513.243 311.415 511.221 311.666C509.2 311.916 507.061 315.349 507.061 315.349Z" stroke="black" stroke-width="0.5"/>
<path d="M521.803 315.605L521.644 324.782L530.653 324.938L530.396 316.172C530.396 316.172 528.115 311.866 525.964 311.922C523.812 311.978 521.803 315.605 521.803 315.605Z" stroke="black" stroke-width="0.5"/>
<path d="M712.36 263.857L712.201 273.034L720.8 273.183L720.953 264.424C720.953 264.424 718.542 259.924 716.521 260.174C714.5 260.425 712.36 263.857 712.36 263.857Z" fill="#5A5A79"/>
<path d="M727.102 264.114L726.943 273.29L735.952 273.447L735.695 264.68C735.695 264.68 733.414 260.375 731.263 260.431C729.111 260.487 727.102 264.114 727.102 264.114Z" fill="#5A5A79"/>
<path d="M712.36 263.857L712.201 273.034L720.8 273.183L720.953 264.424C720.953 264.424 718.542 259.924 716.521 260.174C714.5 260.425 712.36 263.857 712.36 263.857Z" stroke="black" stroke-width="0.5"/>
<path d="M727.102 264.114L726.943 273.29L735.952 273.447L735.695 264.68C735.695 264.68 733.414 260.375 731.263 260.431C729.111 260.487 727.102 264.114 727.102 264.114Z" stroke="black" stroke-width="0.5"/>
<path d="M582.139 261.591L581.979 270.768L590.578 270.918L590.731 262.158C590.731 262.158 588.32 257.658 586.299 257.909C584.278 258.159 582.139 261.591 582.139 261.591Z" fill="#5A5A79"/>
<path d="M596.881 261.848L596.721 271.025L605.73 271.181L605.473 262.415C605.473 262.415 603.192 258.109 601.041 258.165C598.89 258.221 596.881 261.848 596.881 261.848Z" fill="#5A5A79"/>
<path d="M582.139 261.591L581.979 270.768L590.578 270.918L590.731 262.158C590.731 262.158 588.32 257.658 586.299 257.909C584.278 258.159 582.139 261.591 582.139 261.591Z" stroke="black" stroke-width="0.5"/>
<path d="M596.881 261.848L596.721 271.025L605.73 271.181L605.473 262.415C605.473 262.415 603.192 258.109 601.041 258.165C598.89 258.221 596.881 261.848 596.881 261.848Z" stroke="black" stroke-width="0.5"/>
<path d="M764.46 188.805L764.336 195.902L770.86 196.016L770.978 189.241C770.978 189.241 769.15 185.761 767.617 185.956C766.083 186.15 764.46 188.805 764.46 188.805Z" fill="#5A5A79"/>
<path d="M775.643 189L775.52 196.097L782.354 196.216L782.161 189.436C782.161 189.436 780.432 186.107 778.8 186.15C777.168 186.194 775.643 189 775.643 189Z" fill="#5A5A79"/>
<path d="M764.46 188.805L764.336 195.902L770.86 196.016L770.978 189.241C770.978 189.241 769.15 185.761 767.617 185.956C766.083 186.15 764.46 188.805 764.46 188.805Z" stroke="black" stroke-width="0.5"/>
<path d="M775.643 189L775.52 196.097L782.354 196.216L782.161 189.436C782.161 189.436 780.432 186.107 778.8 186.15C777.168 186.194 775.643 189 775.643 189Z" stroke="black" stroke-width="0.5"/>
<path d="M787.406 188.379L787.268 196.304L793.41 196.411L793.548 188.485C793.548 188.485 791.683 186.28 790.309 186.343C788.934 186.405 787.406 188.379 787.406 188.379Z" fill="#5A5A79" stroke="black" stroke-width="0.5"/>
<path d="M540.734 357.658L539.417 409.791L550.892 409.467L551.805 357.017C551.805 357.017 550.06 352.084 547.395 351.516C543.962 350.783 540.734 357.658 540.734 357.658Z" fill="#5A5A79" stroke="black" stroke-width="0.5"/>
<path d="M560.404 357.212L559.087 409.345L570.562 409.021L571.475 356.57C571.475 356.57 569.73 351.638 567.064 351.069C563.632 350.337 560.404 357.212 560.404 357.212Z" fill="#5A5A79" stroke="black" stroke-width="0.5"/>
<path d="M748.006 404.659L738.178 404.488C738.178 404.488 737.784 393.8 737.664 386.954C737.543 380.108 737.566 369.012 737.566 369.012C737.566 369.012 740.433 364.38 743.379 364.523C746.1 364.656 748.623 369.204 748.623 369.204L748.006 404.659Z" fill="#5A5A79" stroke="black" stroke-width="0.5"/>
<path d="M765.213 404.541L754.565 404.356C754.565 404.356 754.998 393.264 754.877 386.419C754.757 379.573 755.182 368.901 755.182 368.901C755.182 368.901 757.64 364.262 760.586 364.405C763.306 364.538 765.829 369.086 765.829 369.086L765.213 404.541Z" fill="#5A5A79" stroke="black" stroke-width="0.5"/>
<path d="M800.945 405.163L790.298 404.978C790.298 404.978 790.731 393.886 790.61 387.041C790.49 380.195 790.915 369.523 790.915 369.523C790.915 369.523 793.373 364.884 796.319 365.027C799.039 365.16 801.562 369.708 801.562 369.708L800.945 405.163Z" fill="#5A5A79" stroke="black" stroke-width="0.5"/>
<path d="M783.746 404.864L773.099 404.679C773.099 404.679 773.532 393.587 773.411 386.741C773.291 379.895 773.716 369.224 773.716 369.224C773.716 369.224 776.174 364.585 779.12 364.728C781.84 364.86 784.363 369.409 784.363 369.409L783.746 404.864Z" fill="#5A5A79" stroke="black" stroke-width="0.5"/>
<path d="M645.206 238.892L634.559 238.707L635.14 205.338C635.14 205.338 637.82 200.795 640.543 200.842C643.267 200.889 645.787 205.523 645.787 205.523L645.206 238.892Z" fill="#5A5A79"/>
<path d="M654.386 205.673L653.806 239.042L664.043 239.22L664.624 205.851C664.624 205.851 662.103 201.107 659.38 201.17C656.777 201.23 654.386 205.673 654.386 205.673Z" fill="#5A5A79"/>
<path d="M673.633 206.007L673.052 239.377L683.7 239.562L684.28 206.193C684.28 206.193 681.76 201.559 679.036 201.512C676.313 201.464 673.633 206.007 673.633 206.007Z" fill="#5A5A79"/>
<path d="M645.206 238.892L634.559 238.707L635.14 205.338C635.14 205.338 637.82 200.795 640.543 200.842C643.267 200.889 645.787 205.523 645.787 205.523L645.206 238.892Z" stroke="black" stroke-width="0.5"/>
<path d="M654.386 205.673L653.806 239.042L664.043 239.22L664.624 205.851C664.624 205.851 662.103 201.107 659.38 201.17C656.777 201.23 654.386 205.673 654.386 205.673Z" stroke="black" stroke-width="0.5"/>
<path d="M673.633 206.007L673.052 239.377L683.7 239.562L684.28 206.193C684.28 206.193 681.76 201.559 679.036 201.512C676.313 201.464 673.633 206.007 673.633 206.007Z" stroke="black" stroke-width="0.5"/>
<path d="M511.081 296.225L511.16 291.637L514.846 291.701L514.766 296.289L511.081 296.225Z" fill="#6E3C24" stroke="black" stroke-width="0.2"/>
<path d="M516.813 296.325L516.893 291.737L520.579 291.801L520.499 296.389L516.813 296.325Z" fill="#6E3C24" stroke="black" stroke-width="0.2"/>
<path d="M522.547 296.425L522.626 291.836L526.312 291.901L526.232 296.489L522.547 296.425Z" fill="#6E3C24" stroke="black" stroke-width="0.2"/>
<path d="M716.804 243.893L716.884 239.305L720.569 239.369L720.489 243.958L716.804 243.893Z" fill="#6E3C24" stroke="black" stroke-width="0.5"/>
<path d="M722.537 243.993L722.617 239.405L726.302 239.469L726.222 244.057L722.537 243.993Z" fill="#6E3C24" stroke="black" stroke-width="0.5"/>
<path d="M728.27 244.093L728.35 239.504L732.035 239.569L731.955 244.157L728.27 244.093Z" fill="#6E3C24" stroke="black" stroke-width="0.5"/>
<path d="M587.401 241.642L587.481 237.054L591.166 237.118L591.087 241.706L587.401 241.642Z" fill="#6E3C24" stroke="black" stroke-width="0.5"/>
<path d="M593.134 241.742L593.214 237.154L596.9 237.218L596.82 241.806L593.134 241.742Z" fill="#6E3C24" stroke="black" stroke-width="0.5"/>
<path d="M598.867 241.842L598.947 237.253L602.633 237.318L602.553 241.906L598.867 241.842Z" fill="#6E3C24" stroke="black" stroke-width="0.5"/>
<path d="M640.754 353.554L639.789 409.031L682.398 408.52L683.443 348.455C683.443 348.455 681.385 325.517 663.295 329.332C645.205 333.148 640.754 353.554 640.754 353.554Z" fill="#5A5A79" stroke="black" stroke-width="0.5"/>
<path d="M639.982 162.446L640.156 152.435L645.89 152.535L645.715 162.546L639.982 162.446Z" fill="#864B44" stroke="black" stroke-width="0.5"/>
<path d="M676.018 163.073L676.193 153.062L681.926 153.162L681.751 163.173L676.018 163.073Z" fill="#864B44" stroke="black" stroke-width="0.5"/>
<path d="M664.552 162.874L664.727 152.863L670.46 152.963L670.285 162.973L664.552 162.874Z" fill="#864B44" stroke="black" stroke-width="0.5"/>
<path d="M652.267 162.66L652.442 152.649L658.175 152.749L658.001 162.76L652.267 162.66Z" fill="#864B44" stroke="black" stroke-width="0.5"/>
<path d="M637.702 175.758L637.833 168.25L644.385 168.364L644.254 175.872L637.702 175.758Z" fill="#E4A26F" stroke="#E4A26F" stroke-width="0.5"/>
<path d="M676.605 176.435L676.736 168.927L683.288 169.041L683.157 176.549L676.605 176.435Z" fill="#E4A26F" stroke="#E4A26F" stroke-width="0.5"/>
<path d="M656.949 176.093L657.094 167.75L664.465 167.879L664.32 176.221L656.949 176.093Z" fill="#E4A26F" stroke="#E4A26F" stroke-width="0.5"/>
<path d="M640.752 353.558L639.786 409.034L627.501 408.821C627.501 408.821 628.261 346.632 628.612 345.002C629.505 340.845 633.119 332.78 637.92 328.056C642.722 323.333 647.879 320.719 657.707 320.89C667.217 321.056 675.504 330.553 678.435 334.34C679.198 335.231 679.564 335.874 679.564 335.874C679.564 335.874 679.166 335.285 678.435 334.34C675.907 331.386 669.023 325.71 656.697 331.721C644.305 337.764 640.752 353.558 640.752 353.558Z" fill="#E2A272"/>
<path d="M639.786 409.034L640.752 353.558C640.752 353.558 644.305 337.764 656.697 331.721C672.742 323.897 679.564 335.874 679.564 335.874C679.564 335.874 669.59 321.097 657.707 320.89C647.879 320.719 642.722 323.333 637.92 328.056C633.119 332.78 629.505 340.845 628.612 345.002C628.261 346.632 627.501 408.821 627.501 408.821L639.786 409.034Z" stroke="black" stroke-width="0.5"/>
<path d="M736.219 351.463L736.35 343.955L814.169 345.309L808.32 351.883L736.219 351.463Z" fill="#F3B897"/>
<path d="M736.712 323.934L736.371 343.538L814.176 344.892C814.176 344.892 808.2 340.526 805.305 336.81C802.41 333.093 799.351 325.858 799.351 325.858L736.712 323.934Z" fill="#4B5FA7" stroke="#4B5FA7" stroke-width="0.5"/>
<path d="M634.586 166.525L637.424 168.243L637.286 176.168L644.247 176.289L644.422 166.278L656.707 166.492L656.532 176.503L664.313 176.638L664.487 166.627L676.772 166.841L676.598 176.852L683.56 176.973L683.734 166.962L694.761 168.823" stroke="black"/>
<path d="M580.583 327.476L591.23 327.662" stroke="#987353" stroke-width="2"/>
<path d="M592.831 376.924L603.478 377.11" stroke="#987353" stroke-width="2"/>
<path d="M576.001 402.501L586.648 402.686" stroke="#987353" stroke-width="2"/>
<path d="M594.149 395.306L604.796 395.491" stroke="#987353" stroke-width="2"/>
<path d="M580.386 385.887L591.033 386.072" stroke="#987353" stroke-width="2"/>
<path d="M576.538 371.634L587.185 371.819" stroke="#987353" stroke-width="2"/>
<path d="M584.112 360.083L594.759 360.268" stroke="#987353" stroke-width="2"/>
<path d="M593.266 351.897L603.913 352.082" stroke="#987353" stroke-width="2"/>
<path d="M577.017 344.104L587.664 344.289" stroke="#987353" stroke-width="2"/>
<path d="M591.875 337.687L602.522 337.872" stroke="#987353" stroke-width="2"/>
<path d="M592.238 316.831L602.885 317.016" stroke="#987353" stroke-width="2"/>
<path d="M580.975 304.952L591.622 305.137" stroke="#987353" stroke-width="2"/>
<path d="M547.91 326.567L558.557 326.752" stroke="#987353" stroke-width="2"/>
<path d="M561.91 314.567L572.557 314.752" stroke="#987353" stroke-width="2"/>
<path d="M547.91 305.567L558.557 305.752" stroke="#987353" stroke-width="2"/>
<path d="M561.91 295.567L572.557 295.752" stroke="#987353" stroke-width="2"/>
<path d="M550.91 280.567L561.557 280.752" stroke="#987353" stroke-width="2"/>
<path d="M565.91 271.567L576.557 271.752" stroke="#987353" stroke-width="2"/>
<path d="M552.91 257.567L563.557 257.752" stroke="#987353" stroke-width="2"/>
<path d="M567.91 244.567L578.557 244.752" stroke="#987353" stroke-width="2"/>
<path d="M554.91 234.567L565.557 234.752" stroke="#987353" stroke-width="2"/>
<path d="M568.91 220.566L579.557 220.752" stroke="#987353" stroke-width="2"/>
<path d="M556.91 209.566L567.557 209.752" stroke="#987353" stroke-width="2"/>
<path d="M569.91 200.566L580.557 200.752" stroke="#987353" stroke-width="2"/>
<path d="M557.91 186.566L568.557 186.752" stroke="#987353" stroke-width="2"/>
<path d="M578.689 248.001C578.136 247.992 577.681 248.431 577.671 248.984C577.662 249.536 578.102 249.991 578.654 250.001L578.671 249.001L578.689 248.001ZM610.595 250.557L611.595 250.574L611.63 248.574L610.63 248.557L610.612 249.557L610.595 250.557ZM578.671 249.001L578.654 250.001L610.595 250.557L610.612 249.557L610.63 248.557L578.689 248.001L578.671 249.001Z" fill="#987353"/>
<path d="M707.681 250.245C707.129 250.236 706.674 250.676 706.664 251.228C706.655 251.78 707.094 252.235 707.647 252.245L707.664 251.245L707.681 250.245ZM739.178 252.794L740.178 252.811L740.213 250.811L739.213 250.794L739.196 251.794L739.178 252.794ZM707.664 251.245L707.647 252.245L739.178 252.794L739.196 251.794L739.213 250.794L707.681 250.245L707.664 251.245Z" fill="#987353"/>
<path d="M594.514 280.153L605.161 280.338" stroke="#987353" stroke-width="2"/>
<path d="M506.385 401.29L517.033 401.475" stroke="#987353" stroke-width="2"/>
<path d="M520.396 396.526L531.043 396.712" stroke="#987353" stroke-width="2"/>
<path d="M506.676 384.605L517.323 384.79" stroke="#987353" stroke-width="2"/>
<path d="M523.259 373.21L533.906 373.396" stroke="#987353" stroke-width="2"/>
<path d="M507.053 362.915L517.7 363.1" stroke="#987353" stroke-width="2"/>
<path d="M507.401 342.893L518.048 343.078" stroke="#987353" stroke-width="2"/>
<path d="M525.245 353.217L535.892 353.403" stroke="#987353" stroke-width="2"/>
<path d="M551.613 344.497L562.26 344.682" stroke="#987353" stroke-width="2"/>
<path d="M725.074 404.26L735.721 404.445" stroke="#987353" stroke-width="2"/>
<path d="M708.911 391.461L719.558 391.646" stroke="#987353" stroke-width="2"/>
<path d="M723.023 380.858L733.67 381.043" stroke="#987353" stroke-width="2"/>
<path d="M707.622 371.411L718.269 371.596" stroke="#987353" stroke-width="2"/>
<path d="M722.523 362.491L733.17 362.676" stroke="#987353" stroke-width="2"/>
<path d="M724.518 294.932L735.165 295.117" stroke="#987353" stroke-width="2"/>
<path d="M710.421 304.7L721.068 304.886" stroke="#987353" stroke-width="2"/>
<path d="M723.293 318.276L733.94 318.462" stroke="#987353" stroke-width="2"/>
<path d="M710.863 326.405L721.51 326.59" stroke="#987353" stroke-width="2"/>
<path d="M722.125 338.284L732.772 338.469" stroke="#987353" stroke-width="2"/>
<path d="M722.125 338.284L732.772 338.469" stroke="#987353" stroke-width="2"/>
<path d="M784.05 357.72L794.697 357.905" stroke="#987353" stroke-width="2"/>
<path d="M762.713 359.852L773.36 360.037" stroke="#987353" stroke-width="2"/>
<path d="M743.1 357.007L753.747 357.193" stroke="#987353" stroke-width="2"/>
<path d="M709.695 346.412L720.342 346.598" stroke="#987353" stroke-width="2"/>
<path d="M829.305 393.556L839.952 393.741" stroke="#987353" stroke-width="2"/>
<path d="M823.848 377.605L834.495 377.791" stroke="#987353" stroke-width="2"/>
<path d="M837.989 365.334L848.636 365.519" stroke="#987353" stroke-width="2"/>
<path d="M824.211 356.75L834.858 356.935" stroke="#987353" stroke-width="2"/>
<path d="M833.394 346.896L844.041 347.081" stroke="#987353" stroke-width="2"/>
<path d="M825.407 335.073L836.054 335.259" stroke="#987353" stroke-width="2"/>
<path d="M839.461 327.808L850.108 327.993" stroke="#987353" stroke-width="2"/>
<path d="M825.755 315.052L836.402 315.237" stroke="#987353" stroke-width="2"/>
<path d="M839.853 305.283L850.5 305.468" stroke="#987353" stroke-width="2"/>
<path d="M828.561 295.073L839.208 295.258" stroke="#987353" stroke-width="2"/>
<path d="M839.367 286.082L850.014 286.267" stroke="#987353" stroke-width="2"/>
<path d="M823.074 280.791L833.721 280.976" stroke="#987353" stroke-width="2"/>
<path d="M837.171 271.022L847.818 271.208" stroke="#987353" stroke-width="2"/>
<path d="M810.963 270.566L821.61 270.752" stroke="#987353" stroke-width="2"/>
<path d="M826.713 259.992L837.36 260.177" stroke="#987353" stroke-width="2"/>
<path d="M841.101 233.539L851.748 233.724" stroke="#987353" stroke-width="2"/>
<path d="M827.062 239.971L837.709 240.156" stroke="#987353" stroke-width="2"/>
<path d="M842.434 251.086L853.081 251.272" stroke="#987353" stroke-width="2"/>
<path d="M713.212 285.556L723.859 285.741" stroke="#987353" stroke-width="2"/>
<path d="M581.236 289.936L591.883 290.121" stroke="#987353" stroke-width="2"/>
<path d="M593.39 297.657L604.037 297.843" stroke="#987353" stroke-width="2"/>
<defs>
<linearGradient id="paint0_linear_231_277" x1="447.25" y1="0.5" x2="447.25" y2="537" gradientUnits="userSpaceOnUse">
<stop stop-color="#020617"/>
<stop offset="1" stop-color="#312E81"/>
</linearGradient>
</defs>
</svg>
