<svg width="895" height="538" viewBox="0 0 895 538" fill="none" xmlns="http://www.w3.org/2000/svg">
<path d="M0.5 0.5V536.5L894 537V0.5H0.5Z" fill="url(#paint0_linear_231_276)" stroke="black"/>
<path d="M893.5 415.5H0.5V476V536.5H893.5V415.5Z" fill="#764C24" stroke="#764C24"/>
<path d="M2 423V409.5L893.5 411.5V430.5L886 430V424.5L874.5 423.5V430L868.5 430.5V438L861 436.5L859 430.5L854.5 429L852.5 423.5L841.5 424.5V430.5H828.5L827 438L813.5 436.5V430.5L801 430L800 423.5L776 424.5V429L762 430.5V438H753.5V430.5H749V423.5L742.5 422V430.5H731V436.5H709.5L708 430.5L702 429V424.5H690.5L689 430.5H682.5V436.5H676V430.5L669 429L667.5 424.5H657.5L656 430.5H645L642 438L629 436.5V430.5H616.5V424.5H590V430.5H579V438H570L568.5 430.5L564 429L565.5 424.5L558 423.5L557 430.5L546 429L544 438L523 436.5V430.5H517L514 424.5H506L504 430.5H498.5L500.5 438H491.5C490.3 438 489.667 433 489.5 430.5L483.5 432L482 423H472.5L471 429L458.5 430.5V438H443.5V432L431 430.5V424.5L404.5 423V430.5L394 432V436.5H385C383.8 436.5 383.5 432.5 383.5 430.5L379 429L377.5 424.5H374L372 430.5H361.5V438C354.333 438 339.6 437.7 338 436.5C336.4 435.3 337.333 432 338 430.5L330.5 429V423C327.5 423.5 321.2 424.2 320 423C318.8 421.8 320.5 425.167 321.5 427L313.5 430.5V438L305.5 436.5V432L297.5 430.5V423H288L286.5 430.5H274V438C270.167 438 262.1 437.7 260.5 436.5C258.9 435.3 257.5 433 257 432H246L244 424.5H222L219 430.5H208.5L206.5 438C205 438.667 201.8 439.6 201 438C200.2 436.4 199 433.333 198.5 432L194 430.5L196 424.5H186.5C184.1 424.5 185.5 428.5 186.5 430.5H175.5L173.5 436.5C167.833 437 156.1 438 154.5 438C152.9 438 152.833 434 153 432L149 430.5L144.5 424.5L135.5 423L132.5 430.5H129L126.5 438H121V430.5L114 432V423H102V430.5H88.5V438L77 440L71.5 432L62 430.5L58 423H36.5L34.5 430.5L24 432L21 438H16L12 430.5L9 428.5V423H2Z" fill="#1EDD51" stroke="#1EDD51" stroke-width="2"/>
<path d="M780.875 183.355L780.918 180.852L784.618 180.082L794.7 165.654L799.393 154.887L802.851 144.516L806.348 155.425L810.671 165.932C810.671 165.932 816.706 176.12 819.455 179.019C822.204 181.918 824.749 180.78 824.749 180.78L824.691 184.117L780.875 183.355Z" fill="#344691" stroke="black" stroke-width="0.5"/>
<path d="M765.175 238.158L731.596 237.574L739.652 221.859L749.753 182.813L756.441 222.151L765.175 238.158Z" fill="#344691" stroke="black" stroke-width="0.5"/>
<path d="M559.839 291.748L526.26 291.164L532.124 283.756L543.605 235.972L553.008 284.119L559.839 291.748Z" fill="#344691"/>
<path d="M543.605 235.972L553.008 284.119L559.839 291.748L526.26 291.164L532.124 283.756L543.605 235.972ZM543.605 235.972L543.728 228.881" stroke="black" stroke-width="0.5"/>
<path d="M635.75 237.158L600.124 236.538L605.132 231.201L619.078 183.043L629.68 232.88L635.75 237.158Z" fill="#344691"/>
<path d="M649.516 152.279L649.596 147.691L654.1 147.77L662.435 139.57L684.52 94.4742L701.856 133.997L713.887 148.81L720.03 148.917L719.95 153.505L649.516 152.279Z" fill="#344691"/>
<path d="M635.75 237.158L600.124 236.538L605.132 231.201L619.078 183.043L629.68 232.88L635.75 237.158Z" stroke="black" stroke-width="0.5"/>
<path d="M649.516 152.279L649.596 147.691L654.1 147.77L662.435 139.57L684.52 94.4742L701.856 133.997L713.887 148.81L720.03 148.917L719.95 153.505L649.516 152.279Z" stroke="black" stroke-width="0.5"/>
<path d="M525.977 307.432L531.725 306.697L531.993 291.264L552.878 291.627L552.616 306.644L559.147 308.009L558.653 336.373C558.653 336.373 556.974 338.163 556.526 340.926C556.078 343.688 556.388 348.851 556.388 348.851L562.94 348.965C562.94 348.965 563.427 345.954 566.713 344.024C568.782 342.808 570.413 343.254 570.413 343.254L579 190.331L575.993 187.301L576.465 160.188L583.017 160.302L582.886 167.81L589.029 167.917L589.159 160.409L595.302 160.516L595.171 168.024L602.133 168.145L602.264 160.637L608.816 160.751L608.685 168.259L608.344 187.864L606.253 190.331L605.527 232.043L600.943 236.553L606.266 236.645L629.198 237.044L628.901 254.146L635.043 254.253L634.615 278.863L632.51 282.164L632.401 288.421L646.375 285.744L648.334 173.122L658.184 172.041L658.525 152.437L709.713 153.327L709.372 172.932L718.359 174.34L719.065 204.394L718.833 217.742L740.536 218.119L739.235 222.269L731.998 237.998L765.167 238.575L756.844 222.575L756.097 218.39L777.391 218.76L774.198 237.481L773.894 255L779.627 255.099L779.764 247.174L787.954 247.317L789.441 208.956L783.371 204.678L783.741 183.405L821.415 184.06L821.462 204.923L814.83 209.398L814.163 247.773L820.715 247.887L820.591 254.978L827.143 255.092L827.267 248.001L838.323 248.193L838.185 256.118L847.604 256.282L846.024 252.917L846.963 222.474L854.744 222.609L854.613 230.118L859.937 230.21L860.067 222.702L866.619 222.816L866.481 230.741L871.395 230.827L871.526 223.319L879.716 223.461L879.186 253.911L877.497 256.802L875.335 381.103L879.668 414.558L839.142 413.019L841.868 397.628L846.059 297.98C846.059 297.98 835.947 289.767 828.668 285.16C821.39 280.552 814.802 278.482 806.7 276.433C798.598 274.383 762.898 274.836 762.898 274.836L762.782 281.51L761.079 285.236L759.961 349.472L837.766 350.826L831.896 358.651L830.938 413.711L724.422 414.482L632.244 415.15L526.138 415.918L525.462 337.047L525.977 307.432Z" fill="#FDC59A"/>
<path d="M570.413 343.254L579 190.331L575.993 187.301L576.465 160.188L583.017 160.302L582.886 167.81L589.029 167.917L589.159 160.409L595.302 160.516L595.171 168.024L602.133 168.145L602.264 160.637L608.816 160.751L608.685 168.259L608.344 187.864L606.253 190.331L605.527 232.043L600.943 236.553L606.266 236.645M570.413 343.254C570.413 343.254 568.782 342.808 566.713 344.024C563.427 345.954 562.94 348.965 562.94 348.965L556.388 348.851C556.388 348.851 556.078 343.688 556.526 340.926C556.974 338.163 558.653 336.373 558.653 336.373L559.147 308.009L552.616 306.644L552.878 291.627L531.993 291.264L531.725 306.697L525.977 307.432L525.462 337.047L526.138 415.918L632.244 415.15M570.413 343.254L575.327 343.339L575.421 337.917L581.973 338.03L581.879 343.453L588.021 343.56L588.116 338.137L594.258 338.244L594.164 343.667L599.078 343.752L601.177 293.719L601.388 281.623L601.852 254.927L606.005 251.662L606.266 236.645M606.266 236.645L629.198 237.044L628.901 254.146L635.043 254.253L634.615 278.863L632.51 282.164L632.401 288.421M646.375 285.744L648.334 173.122L658.184 172.041L658.525 152.437L709.713 153.327L709.372 172.932L718.359 174.34L719.065 204.394L718.833 217.742L740.536 218.119L739.235 222.269L731.998 237.998M646.375 285.744L632.401 288.421M646.375 285.744C646.375 285.744 660.349 283.066 682.893 282.206C705.437 281.347 732.599 288.495 732.599 288.495M632.401 288.421C630.627 311.895 630.486 351.392 630.312 361.403C630.094 373.916 630.479 398.884 632.244 415.15M787.954 247.317L788.773 247.331L788.65 254.422L793.974 254.515L794.097 247.424L805.563 247.623L805.44 254.714L811.582 254.821L811.706 247.73L814.163 247.773M787.954 247.317L779.764 247.174L779.627 255.099L773.894 255L774.198 237.481L777.391 218.76L756.097 218.39L756.844 222.575L765.167 238.575M787.954 247.317L789.441 208.956L783.371 204.678L783.741 183.405L821.415 184.06L821.462 204.923L814.83 209.398L814.163 247.773M814.163 247.773L820.715 247.887L820.591 254.978L827.143 255.092L827.267 248.001L838.323 248.193L838.185 256.118L847.604 256.282L846.024 252.917L846.963 222.474L854.744 222.609L854.613 230.118L859.937 230.21L860.067 222.702L866.619 222.816L866.481 230.741L871.395 230.827L871.526 223.319L879.716 223.461L879.186 253.911L877.497 256.802L875.335 381.103L879.668 414.558L839.142 413.019L841.868 397.628L846.059 297.98C846.059 297.98 835.947 289.767 828.668 285.16C821.39 280.552 814.802 278.482 806.7 276.433C798.598 274.383 762.898 274.836 762.898 274.836M765.167 238.575L759.326 244.732L759.195 252.241L763.21 256.9L762.782 281.51L761.079 285.236L759.961 349.472L837.766 350.826L831.896 358.651L830.938 413.711L724.422 414.482M765.167 238.575L731.998 237.998M731.998 237.998L735.18 243.478L735.049 250.986L730.852 256.754L731.236 281.796L732.816 285.161L732.599 288.495M724.422 414.482L732.599 288.495M724.422 414.482L632.244 415.15" stroke="black"/>
<path opacity="0.64" d="M717.255 284.89L732.348 288.491L732.816 285.161L730.819 282.205L730.935 275.531L717.422 275.296L717.255 284.89Z" fill="white" stroke="black" stroke-width="0.5"/>
<path d="M555.017 215.726L544.37 215.541L543.997 223.462L554.441 225.313L551.661 220.257L555.017 215.726Z" fill="#DA4B51"/>
<path d="M543.721 229.299L543.997 223.462M543.997 223.462L544.37 215.541L555.017 215.726L551.661 220.257L554.441 225.313L543.997 223.462Z" stroke="black" stroke-width="0.5"/>
<path d="M813.723 131.77L803.076 131.585L802.702 139.506L813.146 141.357L810.367 136.302L813.723 131.77Z" fill="#DA4B51"/>
<path d="M802.427 145.343L802.702 139.506M802.702 139.506L803.076 131.585L813.723 131.77L810.367 136.302L813.146 141.357L802.702 139.506Z" stroke="black" stroke-width="0.5"/>
<path d="M696.628 81.333L685.981 81.1477L685.607 89.0689L696.052 90.9196L693.272 85.8643L696.628 81.333Z" fill="#DA4B51"/>
<path d="M685.332 94.9055L685.607 89.0689M685.607 89.0689L685.981 81.1477L696.628 81.333L693.272 85.8643L696.052 90.9196L685.607 89.0689Z" stroke="black" stroke-width="0.5"/>
<path d="M630.374 169.471L619.727 169.285L619.353 177.207L629.798 179.057L627.018 174.002L630.374 169.471Z" fill="#DA4B51"/>
<path d="M619.078 183.043L619.353 177.207M619.353 177.207L619.727 169.285L630.374 169.471L627.018 174.002L629.798 179.057L619.353 177.207Z" stroke="black" stroke-width="0.5"/>
<path d="M530.652 321.282L530.492 330.459L539.091 330.609L539.244 321.849C539.244 321.849 536.833 317.349 534.812 317.6C532.791 317.85 530.652 321.282 530.652 321.282Z" fill="#5A5A79"/>
<path d="M545.394 321.539L545.234 330.715L554.243 330.872L553.986 322.106C553.986 322.106 551.705 317.8 549.554 317.856C547.403 317.912 545.394 321.539 545.394 321.539Z" fill="#5A5A79"/>
<path d="M530.652 321.282L530.492 330.459L539.091 330.609L539.244 321.849C539.244 321.849 536.833 317.349 534.812 317.6C532.791 317.85 530.652 321.282 530.652 321.282Z" stroke="black" stroke-width="0.5"/>
<path d="M545.394 321.539L545.234 330.715L554.243 330.872L553.986 322.106C553.986 322.106 551.705 317.8 549.554 317.856C547.403 317.912 545.394 321.539 545.394 321.539Z" stroke="black" stroke-width="0.5"/>
<path d="M735.951 269.791L735.791 278.967L744.39 279.117L744.543 270.357C744.543 270.357 742.132 265.857 740.111 266.108C738.09 266.358 735.951 269.791 735.951 269.791Z" fill="#5A5A79"/>
<path d="M750.693 270.047L750.533 279.224L759.542 279.38L759.285 270.614C759.285 270.614 757.004 266.308 754.853 266.364C752.702 266.42 750.693 270.047 750.693 270.047Z" fill="#5A5A79"/>
<path d="M735.951 269.791L735.791 278.967L744.39 279.117L744.543 270.357C744.543 270.357 742.132 265.857 740.111 266.108C738.09 266.358 735.951 269.791 735.951 269.791Z" stroke="black" stroke-width="0.5"/>
<path d="M750.693 270.047L750.533 279.224L759.542 279.38L759.285 270.614C759.285 270.614 757.004 266.308 754.853 266.364C752.702 266.42 750.693 270.047 750.693 270.047Z" stroke="black" stroke-width="0.5"/>
<path d="M605.729 267.525L605.569 276.702L614.169 276.851L614.321 268.092C614.321 268.092 611.91 263.592 609.889 263.842C607.868 264.093 605.729 267.525 605.729 267.525Z" fill="#5A5A79"/>
<path d="M620.471 267.782L620.311 276.958L629.32 277.115L629.063 268.348C629.063 268.348 626.782 264.043 624.631 264.099C622.48 264.155 620.471 267.782 620.471 267.782Z" fill="#5A5A79"/>
<path d="M605.729 267.525L605.569 276.702L614.169 276.851L614.321 268.092C614.321 268.092 611.91 263.592 609.889 263.842C607.868 264.093 605.729 267.525 605.729 267.525Z" stroke="black" stroke-width="0.5"/>
<path d="M620.471 267.782L620.311 276.958L629.32 277.115L629.063 268.348C629.063 268.348 626.782 264.043 624.631 264.099C622.48 264.155 620.471 267.782 620.471 267.782Z" stroke="black" stroke-width="0.5"/>
<path d="M788.05 194.739L787.926 201.836L794.45 201.95L794.568 195.175C794.568 195.175 792.74 191.695 791.207 191.889C789.674 192.084 788.05 194.739 788.05 194.739Z" fill="#5A5A79"/>
<path d="M799.233 194.933L799.11 202.031L805.944 202.15L805.752 195.369C805.752 195.369 804.022 192.04 802.39 192.084C800.759 192.128 799.233 194.933 799.233 194.933Z" fill="#5A5A79"/>
<path d="M788.05 194.739L787.926 201.836L794.45 201.95L794.568 195.175C794.568 195.175 792.74 191.695 791.207 191.889C789.674 192.084 788.05 194.739 788.05 194.739Z" stroke="black" stroke-width="0.5"/>
<path d="M799.233 194.933L799.11 202.031L805.944 202.15L805.752 195.369C805.752 195.369 804.022 192.04 802.39 192.084C800.759 192.128 799.233 194.933 799.233 194.933Z" stroke="black" stroke-width="0.5"/>
<path d="M810.996 194.312L810.858 202.237L817.001 202.344L817.139 194.419C817.139 194.419 815.274 192.214 813.899 192.276C812.524 192.339 810.996 194.312 810.996 194.312Z" fill="#5A5A79" stroke="black" stroke-width="0.5"/>
<path d="M564.324 363.592L563.007 415.725L574.483 415.401L575.395 362.95C575.395 362.95 573.65 358.018 570.985 357.449C567.552 356.717 564.324 363.592 564.324 363.592Z" fill="#5A5A79" stroke="black" stroke-width="0.5"/>
<path d="M583.994 363.146L582.677 415.278L594.152 414.955L595.065 362.504C595.065 362.504 593.32 357.572 590.655 357.003C587.222 356.271 583.994 363.146 583.994 363.146Z" fill="#5A5A79" stroke="black" stroke-width="0.5"/>
<path d="M771.596 410.593L761.768 410.422C761.768 410.422 761.375 399.733 761.254 392.887C761.133 386.042 761.156 374.945 761.156 374.945C761.156 374.945 764.024 370.314 766.969 370.457C769.69 370.589 772.213 375.138 772.213 375.138L771.596 410.593Z" fill="#5A5A79" stroke="black" stroke-width="0.5"/>
<path d="M788.803 410.475L778.156 410.29C778.156 410.29 778.589 399.198 778.468 392.352C778.347 385.507 778.772 374.835 778.772 374.835C778.772 374.835 781.23 370.196 784.176 370.339C786.896 370.471 789.42 375.02 789.42 375.02L788.803 410.475Z" fill="#5A5A79" stroke="black" stroke-width="0.5"/>
<path d="M824.536 411.097L813.889 410.911C813.889 410.911 814.322 399.82 814.201 392.974C814.08 386.128 814.506 375.456 814.506 375.456C814.506 375.456 816.963 370.817 819.909 370.961C822.629 371.093 825.153 375.641 825.153 375.641L824.536 411.097Z" fill="#5A5A79" stroke="black" stroke-width="0.5"/>
<path d="M807.337 410.798L796.69 410.612C796.69 410.612 797.122 399.521 797.002 392.675C796.881 385.829 797.306 375.157 797.306 375.157C797.306 375.157 799.764 370.518 802.71 370.662C805.43 370.794 807.954 375.343 807.954 375.343L807.337 410.798Z" fill="#5A5A79" stroke="black" stroke-width="0.5"/>
<path d="M668.797 244.826L658.15 244.641L658.73 211.271C658.73 211.271 661.41 206.728 664.134 206.776C666.857 206.823 669.377 211.457 669.377 211.457L668.797 244.826Z" fill="#5A5A79"/>
<path d="M677.977 211.606L677.396 244.976L687.634 245.154L688.214 211.784C688.214 211.784 685.694 207.041 682.971 207.103C680.368 207.163 677.977 211.606 677.977 211.606Z" fill="#5A5A79"/>
<path d="M697.223 211.941L696.643 245.311L707.29 245.496L707.87 212.126C707.87 212.126 705.35 207.493 702.627 207.445C699.903 207.398 697.223 211.941 697.223 211.941Z" fill="#5A5A79"/>
<path d="M668.797 244.826L658.15 244.641L658.73 211.271C658.73 211.271 661.41 206.728 664.134 206.776C666.857 206.823 669.377 211.457 669.377 211.457L668.797 244.826Z" stroke="black" stroke-width="0.5"/>
<path d="M677.977 211.606L677.396 244.976L687.634 245.154L688.214 211.784C688.214 211.784 685.694 207.041 682.971 207.103C680.368 207.163 677.977 211.606 677.977 211.606Z" stroke="black" stroke-width="0.5"/>
<path d="M697.223 211.941L696.643 245.311L707.29 245.496L707.87 212.126C707.87 212.126 705.35 207.493 702.627 207.445C699.903 207.398 697.223 211.941 697.223 211.941Z" stroke="black" stroke-width="0.5"/>
<path d="M534.671 302.159L534.751 297.57L538.436 297.634L538.356 302.223L534.671 302.159Z" fill="#6E3C24" stroke="black" stroke-width="0.2"/>
<path d="M540.404 302.259L540.484 297.67L544.169 297.735L544.089 302.323L540.404 302.259Z" fill="#6E3C24" stroke="black" stroke-width="0.2"/>
<path d="M546.137 302.358L546.217 297.77L549.902 297.834L549.822 302.422L546.137 302.358Z" fill="#6E3C24" stroke="black" stroke-width="0.2"/>
<path d="M740.394 249.827L740.474 245.239L744.159 245.303L744.08 249.891L740.394 249.827Z" fill="#6E3C24" stroke="black" stroke-width="0.5"/>
<path d="M746.127 249.927L746.207 245.338L749.893 245.402L749.813 249.991L746.127 249.927Z" fill="#6E3C24" stroke="black" stroke-width="0.5"/>
<path d="M751.86 250.026L751.94 245.438L755.625 245.502L755.546 250.09L751.86 250.026Z" fill="#6E3C24" stroke="black" stroke-width="0.5"/>
<path d="M610.991 247.576L611.071 242.987L614.757 243.051L614.677 247.64L610.991 247.576Z" fill="#6E3C24" stroke="black" stroke-width="0.5"/>
<path d="M616.725 247.676L616.804 243.087L620.49 243.152L620.41 247.74L616.725 247.676Z" fill="#6E3C24" stroke="black" stroke-width="0.5"/>
<path d="M622.458 247.775L622.537 243.187L626.223 243.251L626.143 247.839L622.458 247.775Z" fill="#6E3C24" stroke="black" stroke-width="0.5"/>
<path d="M664.344 359.487L663.379 414.964L705.989 414.454L707.034 354.389C707.034 354.389 704.975 331.45 686.885 335.266C668.795 339.081 664.344 359.487 664.344 359.487Z" fill="#5A5A79" stroke="black" stroke-width="0.5"/>
<path d="M663.573 168.379L663.747 158.369L669.48 158.468L669.306 168.479L663.573 168.379Z" fill="#864B44" stroke="black" stroke-width="0.5"/>
<path d="M699.609 169.006L699.783 158.996L705.516 159.095L705.342 169.106L699.609 169.006Z" fill="#864B44" stroke="black" stroke-width="0.5"/>
<path d="M688.143 168.807L688.317 158.796L694.05 158.896L693.876 168.907L688.143 168.807Z" fill="#864B44" stroke="black" stroke-width="0.5"/>
<path d="M675.858 168.593L676.032 158.583L681.765 158.682L681.591 168.693L675.858 168.593Z" fill="#864B44" stroke="black" stroke-width="0.5"/>
<path d="M661.293 181.692L661.423 174.184L667.975 174.298L667.845 181.806L661.293 181.692Z" fill="#E4A26F" stroke="#E4A26F" stroke-width="0.5"/>
<path d="M700.196 182.368L700.326 174.86L706.878 174.974L706.748 182.482L700.196 182.368Z" fill="#E4A26F" stroke="#E4A26F" stroke-width="0.5"/>
<path d="M680.539 182.026L680.685 173.684L688.056 173.812L687.91 182.155L680.539 182.026Z" fill="#E4A26F" stroke="#E4A26F" stroke-width="0.5"/>
<path d="M664.342 359.491L663.377 414.968L651.092 414.754C651.092 414.754 651.852 352.565 652.202 350.935C653.096 346.778 656.709 338.713 661.511 333.99C666.312 329.266 671.469 326.653 681.297 326.823C690.807 326.989 699.094 336.486 702.025 340.273C702.788 341.164 703.154 341.807 703.154 341.807C703.154 341.807 702.757 341.218 702.025 340.273C699.497 337.32 692.614 331.644 680.288 337.654C667.896 343.697 664.342 359.491 664.342 359.491Z" fill="#E2A272"/>
<path d="M663.377 414.968L664.342 359.491C664.342 359.491 667.896 343.697 680.288 337.654C696.332 329.83 703.154 341.807 703.154 341.807C703.154 341.807 693.18 327.03 681.297 326.823C671.469 326.653 666.312 329.266 661.511 333.99C656.709 338.713 653.096 346.778 652.202 350.935C651.852 352.565 651.092 414.754 651.092 414.754L663.377 414.968Z" stroke="black" stroke-width="0.5"/>
<path d="M759.81 357.396L759.94 349.888L837.759 351.242L831.91 357.816L759.81 357.396Z" fill="#F3B897"/>
<path d="M760.302 329.867L759.961 349.472L837.766 350.825C837.766 350.825 831.79 346.46 828.895 342.743C826 339.027 822.941 331.791 822.941 331.791L760.302 329.867Z" fill="#4B5FA7" stroke="#4B5FA7" stroke-width="0.5"/>
<path d="M658.177 172.458L661.014 174.176L660.876 182.102L667.838 182.223L668.012 172.212L680.297 172.426L680.123 182.437L687.903 182.572L688.077 172.561L700.363 172.775L700.188 182.786L707.15 182.907L707.324 172.896L718.352 174.757" stroke="black"/>
<path d="M604.173 333.41L614.82 333.595" stroke="#987353" stroke-width="2"/>
<path d="M616.421 382.858L627.068 383.043" stroke="#987353" stroke-width="2"/>
<path d="M599.591 408.434L610.238 408.619" stroke="#987353" stroke-width="2"/>
<path d="M617.74 401.24L628.387 401.425" stroke="#987353" stroke-width="2"/>
<path d="M603.976 391.821L614.623 392.006" stroke="#987353" stroke-width="2"/>
<path d="M600.128 377.567L610.775 377.753" stroke="#987353" stroke-width="2"/>
<path d="M607.702 366.017L618.349 366.202" stroke="#987353" stroke-width="2"/>
<path d="M616.856 357.831L627.503 358.016" stroke="#987353" stroke-width="2"/>
<path d="M600.607 350.038L611.254 350.223" stroke="#987353" stroke-width="2"/>
<path d="M615.465 343.62L626.112 343.805" stroke="#987353" stroke-width="2"/>
<path d="M615.828 322.764L626.475 322.949" stroke="#987353" stroke-width="2"/>
<path d="M604.565 310.886L615.212 311.071" stroke="#987353" stroke-width="2"/>
<path d="M571.5 332.5L582.147 332.686" stroke="#987353" stroke-width="2"/>
<path d="M585.5 320.5L596.147 320.686" stroke="#987353" stroke-width="2"/>
<path d="M571.5 311.5L582.147 311.686" stroke="#987353" stroke-width="2"/>
<path d="M585.5 301.5L596.147 301.686" stroke="#987353" stroke-width="2"/>
<path d="M574.5 286.5L585.147 286.686" stroke="#987353" stroke-width="2"/>
<path d="M589.5 277.5L600.147 277.686" stroke="#987353" stroke-width="2"/>
<path d="M576.5 263.5L587.147 263.686" stroke="#987353" stroke-width="2"/>
<path d="M591.5 250.5L602.147 250.686" stroke="#987353" stroke-width="2"/>
<path d="M578.5 240.5L589.147 240.686" stroke="#987353" stroke-width="2"/>
<path d="M592.5 226.5L603.147 226.685" stroke="#987353" stroke-width="2"/>
<path d="M580.5 215.5L591.147 215.685" stroke="#987353" stroke-width="2"/>
<path d="M593.5 206.5L604.147 206.685" stroke="#987353" stroke-width="2"/>
<path d="M581.5 192.5L592.147 192.685" stroke="#987353" stroke-width="2"/>
<path d="M602.279 253.935C601.727 253.925 601.271 254.365 601.262 254.917C601.252 255.469 601.692 255.925 602.244 255.934L602.261 254.935L602.279 253.935ZM634.185 256.49L635.185 256.508L635.22 254.508L634.22 254.49L634.203 255.49L634.185 256.49ZM602.261 254.935L602.244 255.934L634.185 256.49L634.203 255.49L634.22 254.49L602.279 253.935L602.261 254.935Z" fill="#987353"/>
<path d="M731.272 256.179C730.72 256.169 730.264 256.609 730.255 257.161C730.245 257.714 730.685 258.169 731.237 258.179L731.254 257.179L731.272 256.179ZM762.769 258.727L763.768 258.745L763.803 256.745L762.803 256.727L762.786 257.727L762.769 258.727ZM731.254 257.179L731.237 258.179L762.769 258.727L762.786 257.727L762.803 256.727L731.272 256.179L731.254 257.179Z" fill="#987353"/>
<path d="M618.104 286.086L628.752 286.272" stroke="#987353" stroke-width="2"/>
<path d="M529.976 407.223L540.623 407.408" stroke="#987353" stroke-width="2"/>
<path d="M543.986 402.46L554.633 402.645" stroke="#987353" stroke-width="2"/>
<path d="M530.266 390.539L540.913 390.724" stroke="#987353" stroke-width="2"/>
<path d="M546.849 379.144L557.496 379.329" stroke="#987353" stroke-width="2"/>
<path d="M530.644 368.848L541.291 369.033" stroke="#987353" stroke-width="2"/>
<path d="M530.992 348.827L541.639 349.012" stroke="#987353" stroke-width="2"/>
<path d="M548.836 359.151L559.483 359.336" stroke="#987353" stroke-width="2"/>
<path d="M575.203 350.43L585.85 350.615" stroke="#987353" stroke-width="2"/>
<path d="M748.664 410.193L759.311 410.379" stroke="#987353" stroke-width="2"/>
<path d="M732.502 397.395L743.149 397.58" stroke="#987353" stroke-width="2"/>
<path d="M746.614 386.792L757.261 386.977" stroke="#987353" stroke-width="2"/>
<path d="M731.212 377.345L741.859 377.53" stroke="#987353" stroke-width="2"/>
<path d="M746.114 368.424L756.761 368.61" stroke="#987353" stroke-width="2"/>
<path d="M748.108 300.865L758.755 301.05" stroke="#987353" stroke-width="2"/>
<path d="M734.011 310.634L744.658 310.82" stroke="#987353" stroke-width="2"/>
<path d="M746.883 324.21L757.53 324.395" stroke="#987353" stroke-width="2"/>
<path d="M734.453 332.338L745.1 332.524" stroke="#987353" stroke-width="2"/>
<path d="M745.716 344.217L756.363 344.403" stroke="#987353" stroke-width="2"/>
<path d="M745.716 344.217L756.363 344.403" stroke="#987353" stroke-width="2"/>
<path d="M807.641 363.653L818.288 363.839" stroke="#987353" stroke-width="2"/>
<path d="M786.303 365.786L796.95 365.971" stroke="#987353" stroke-width="2"/>
<path d="M766.69 362.941L777.337 363.126" stroke="#987353" stroke-width="2"/>
<path d="M733.285 352.346L743.932 352.531" stroke="#987353" stroke-width="2"/>
<path d="M852.895 399.489L863.542 399.674" stroke="#987353" stroke-width="2"/>
<path d="M847.438 383.539L858.085 383.724" stroke="#987353" stroke-width="2"/>
<path d="M861.579 371.268L872.226 371.453" stroke="#987353" stroke-width="2"/>
<path d="M847.801 362.683L858.448 362.868" stroke="#987353" stroke-width="2"/>
<path d="M856.984 352.829L867.631 353.014" stroke="#987353" stroke-width="2"/>
<path d="M848.997 341.007L859.644 341.193" stroke="#987353" stroke-width="2"/>
<path d="M863.051 333.741L873.698 333.926" stroke="#987353" stroke-width="2"/>
<path d="M849.346 320.985L859.993 321.171" stroke="#987353" stroke-width="2"/>
<path d="M863.443 311.217L874.09 311.402" stroke="#987353" stroke-width="2"/>
<path d="M852.151 301.006L862.798 301.192" stroke="#987353" stroke-width="2"/>
<path d="M862.958 292.015L873.605 292.2" stroke="#987353" stroke-width="2"/>
<path d="M846.665 286.725L857.312 286.91" stroke="#987353" stroke-width="2"/>
<path d="M860.762 276.956L871.409 277.141" stroke="#987353" stroke-width="2"/>
<path d="M834.554 276.5L845.201 276.685" stroke="#987353" stroke-width="2"/>
<path d="M850.303 265.926L860.951 266.111" stroke="#987353" stroke-width="2"/>
<path d="M864.691 239.473L875.338 239.658" stroke="#987353" stroke-width="2"/>
<path d="M850.652 245.904L861.299 246.09" stroke="#987353" stroke-width="2"/>
<path d="M866.024 257.02L876.671 257.205" stroke="#987353" stroke-width="2"/>
<path d="M736.802 291.489L747.449 291.674" stroke="#987353" stroke-width="2"/>
<path d="M604.826 295.869L615.473 296.054" stroke="#987353" stroke-width="2"/>
<path d="M616.981 303.591L627.628 303.777" stroke="#987353" stroke-width="2"/>
<defs>
<linearGradient id="paint0_linear_231_276" x1="447.25" y1="0.5" x2="447.25" y2="537" gradientUnits="userSpaceOnUse">
<stop stop-color="#0EA5E9"/>
<stop offset="1" stop-color="#BAE6FD"/>
</linearGradient>
</defs>
</svg>
