<svg width="362" height="344" viewBox="0 0 362 344" fill="none" xmlns="http://www.w3.org/2000/svg">
<path d="M256.784 104.921L256.828 102.419L260.528 101.648L270.61 87.2203L275.303 76.4536L278.761 66.0826L282.257 76.9918L286.581 87.4982C286.581 87.4982 292.616 97.6862 295.365 100.586C298.114 103.485 300.659 102.347 300.659 102.347L300.601 105.684L256.784 104.921Z" fill="#344691" stroke="black" stroke-width="0.5"/>
<path d="M241.084 159.724L207.505 159.14L215.562 143.425L225.662 104.38L232.351 143.717L241.084 159.724Z" fill="#344691" stroke="black" stroke-width="0.5"/>
<path d="M35.7488 213.315L2.16965 212.73L8.0333 205.322L19.5149 157.539L28.9179 205.685L35.7488 213.315Z" fill="#344691"/>
<path d="M19.5149 157.539L28.9179 205.685L35.7488 213.315L2.16965 212.73L8.0333 205.322L19.5149 157.539ZM19.5149 157.539L19.6382 150.448" stroke="black" stroke-width="0.5"/>
<path d="M111.66 158.725L76.0336 158.105L81.0419 152.768L94.9878 104.61L105.59 154.447L111.66 158.725Z" fill="#344691"/>
<path d="M125.426 73.8461L125.505 69.2578L130.01 69.3362L138.345 61.1363L160.43 16.0408L177.766 55.5634L189.797 70.3763L195.94 70.4832L195.86 75.0715L125.426 73.8461Z" fill="#344691"/>
<path d="M111.66 158.725L76.0336 158.105L81.0419 152.768L94.9878 104.61L105.59 154.447L111.66 158.725Z" stroke="black" stroke-width="0.5"/>
<path d="M125.426 73.8461L125.505 69.2578L130.01 69.3362L138.345 61.1363L160.43 16.0408L177.766 55.5634L189.797 70.3763L195.94 70.4832L195.86 75.0715L125.426 73.8461Z" stroke="black" stroke-width="0.5"/>
<path d="M1.88687 228.998L7.63441 228.264L7.90291 212.83L28.7875 213.194L28.5262 228.21L35.0565 229.575L34.563 257.939C34.563 257.939 32.8837 259.73 32.4357 262.492C31.9877 265.254 32.2978 270.417 32.2978 270.417L38.8499 270.531C38.8499 270.531 39.337 267.52 42.6225 265.59C44.6917 264.374 46.3225 264.82 46.3225 264.82L53.4975 111.398L51.903 108.867L52.3747 81.7545L58.9267 81.8685L58.7961 89.3767L64.9386 89.4835L65.0693 81.9754L71.2118 82.0822L71.0812 89.5904L78.0427 89.7115L78.1733 82.2034L84.7253 82.3173L84.5947 89.8255L84.2537 109.43L82.1626 111.897L81.4369 153.609L76.8526 158.119L82.1761 158.212L105.108 158.611L104.811 175.712L110.953 175.819L110.525 200.429L108.419 203.731L108.311 209.987L122.284 207.31L124.244 94.6877L134.094 93.6073L134.435 74.0028L185.622 74.8933L185.281 94.4979L194.269 95.906L194.975 125.96L194.742 139.308L216.446 139.685L215.145 143.835L207.908 159.564L241.077 160.142L232.753 144.141L232.007 139.956L253.301 140.326L250.108 159.047L249.803 176.566L255.536 176.666L255.674 168.74L263.864 168.883L265.351 130.522L259.281 126.244L259.651 104.971L297.325 105.627L297.372 126.49L290.74 130.964L290.072 169.339L296.624 169.453L296.501 176.544L303.053 176.658L303.176 169.567L314.233 169.759L314.095 177.684L323.514 177.848L321.934 174.483L322.873 144.04L330.653 144.176L330.523 151.684L335.846 151.776L335.977 144.268L342.529 144.382L342.391 152.307L347.305 152.393L347.436 144.885L355.626 145.027L355.096 175.477L353.407 178.368L351.245 302.67L355.578 336.125L315.052 334.585L317.778 319.194L321.969 219.546C321.969 219.546 311.856 211.334 304.578 206.726C297.3 202.118 290.712 200.048 282.61 197.999C274.508 195.949 238.808 196.402 238.808 196.402L238.692 203.076L236.989 206.802L235.871 271.038L313.676 272.392L307.805 280.217L306.847 335.277L200.331 336.048L108.154 336.716L2.04762 337.485L1.37164 258.614L1.88687 228.998Z" fill="#FDC59A"/>
<path d="M46.3225 264.82L53.4975 111.398L51.903 108.867L52.3747 81.7545L58.9267 81.8685L58.7961 89.3767L64.9386 89.4835L65.0693 81.9754L71.2118 82.0822L71.0812 89.5904L78.0427 89.7115L78.1733 82.2034L84.7253 82.3173L84.5947 89.8255L84.2537 109.43L82.1626 111.897L81.4369 153.609L76.8526 158.119L82.1761 158.212M46.3225 264.82C46.3225 264.82 44.6917 264.374 42.6225 265.59C39.337 267.52 38.8499 270.531 38.8499 270.531L32.2978 270.417C32.2978 270.417 31.9877 265.254 32.4357 262.492C32.8837 259.73 34.563 257.939 34.563 257.939L35.0565 229.575L28.5262 228.21L28.7875 213.194L7.90291 212.83L7.63441 228.264L1.88687 228.998L1.37164 258.614L2.04762 337.485L108.154 336.716M46.3225 264.82L51.2365 264.905L51.3308 259.483L57.8829 259.597L57.7885 265.019L63.9311 265.126L64.0254 259.704L70.1679 259.81L70.0736 265.233L74.9876 265.318L77.0869 215.286L77.2974 203.189L77.7618 176.494L81.9149 173.228L82.1761 158.212M82.1761 158.212L105.108 158.611L104.811 175.712L110.953 175.819L110.525 200.429L108.419 203.731L108.311 209.987M122.284 207.31L124.244 94.6877L134.094 93.6073L134.435 74.0028L185.622 74.8933L185.281 94.4979L194.269 95.906L194.975 125.96L194.742 139.308L216.446 139.685L215.145 143.835L207.908 159.564M122.284 207.31L108.311 209.987M122.284 207.31C122.284 207.31 136.258 204.632 158.803 203.773C181.347 202.913 208.509 210.062 208.509 210.062M108.311 209.987C106.537 233.461 106.396 272.958 106.222 282.969C106.004 295.482 106.389 320.45 108.154 336.716M263.864 168.883L264.683 168.897L264.56 175.988L269.883 176.081L270.007 168.99L281.473 169.189L281.349 176.28L287.492 176.387L287.615 169.296L290.072 169.339M263.864 168.883L255.674 168.74L255.536 176.666L249.803 176.566L250.108 159.047L253.301 140.326L232.007 139.956L232.753 144.141L241.077 160.142M263.864 168.883L265.351 130.522L259.281 126.244L259.651 104.971L297.325 105.627L297.372 126.49L290.74 130.964L290.072 169.339M290.072 169.339L296.624 169.453L296.501 176.544L303.053 176.658L303.176 169.567L314.233 169.759L314.095 177.684L323.514 177.848L321.934 174.483L322.873 144.04L330.653 144.176L330.523 151.684L335.846 151.776L335.977 144.268L342.529 144.382L342.391 152.307L347.305 152.393L347.436 144.885L355.626 145.027L355.096 175.477L353.407 178.368L351.245 302.67L355.578 336.125L315.052 334.585L317.778 319.194L321.969 219.546C321.969 219.546 311.856 211.334 304.578 206.726C297.3 202.118 290.712 200.048 282.61 197.999C274.508 195.949 238.808 196.402 238.808 196.402M241.077 160.142L235.235 166.299L235.105 173.807L239.12 178.466L238.692 203.076L236.989 206.802L235.871 271.038L313.676 272.392L307.805 280.217L306.847 335.277L200.331 336.048M241.077 160.142L207.908 159.564M207.908 159.564L211.089 165.044L210.959 172.552L206.762 178.321L207.146 203.362L208.726 206.727L208.509 210.062M200.331 336.048L208.509 210.062M200.331 336.048L108.154 336.716" stroke="black"/>
<path opacity="0.64" d="M193.165 206.457L208.258 210.057L208.726 206.727L206.729 203.772L206.845 197.098L193.331 196.863L193.165 206.457Z" fill="white" stroke="black" stroke-width="0.5"/>
<path d="M30.927 137.292L20.28 137.107L19.9063 145.028L30.3506 146.879L27.5712 141.824L30.927 137.292Z" fill="#DA4B51"/>
<path d="M19.631 150.865L19.9063 145.028M19.9063 145.028L20.28 137.107L30.927 137.292L27.5712 141.824L30.3506 146.879L19.9063 145.028Z" stroke="black" stroke-width="0.5"/>
<path d="M289.633 53.3371L278.986 53.1519L278.612 61.0731L289.056 62.9237L286.277 57.8684L289.633 53.3371Z" fill="#DA4B51"/>
<path d="M278.337 66.9097L278.612 61.0731M278.612 61.0731L278.986 53.1519L289.633 53.3371L286.277 57.8684L289.056 62.9237L278.612 61.0731Z" stroke="black" stroke-width="0.5"/>
<path d="M172.538 2.89963L161.891 2.7144L161.517 10.6356L171.961 12.4862L169.182 7.43094L172.538 2.89963Z" fill="#DA4B51"/>
<path d="M161.242 16.4722L161.517 10.6356M161.517 10.6356L161.891 2.7144L172.538 2.89963L169.182 7.43094L171.961 12.4862L161.517 10.6356Z" stroke="black" stroke-width="0.5"/>
<path d="M106.284 91.0373L95.6367 90.8521L95.263 98.7732L105.707 100.624L102.928 95.5686L106.284 91.0373Z" fill="#DA4B51"/>
<path d="M94.9877 104.61L95.263 98.7732M95.263 98.7732L95.6367 90.8521L106.284 91.0373L102.928 95.5686L105.707 100.624L95.263 98.7732Z" stroke="black" stroke-width="0.5"/>
<path d="M6.56128 242.849L6.40163 252.025L15.0012 252.175L15.1536 243.415C15.1536 243.415 12.7426 238.915 10.7216 239.166C8.7006 239.416 6.56128 242.849 6.56128 242.849Z" fill="#5A5A79"/>
<path d="M21.3033 243.105L21.1437 252.282L30.1527 252.438L29.8956 243.672C29.8956 243.672 27.6148 239.366 25.4637 239.422C23.3125 239.478 21.3033 243.105 21.3033 243.105Z" fill="#5A5A79"/>
<path d="M6.56128 242.849L6.40163 252.025L15.0012 252.175L15.1536 243.415C15.1536 243.415 12.7426 238.915 10.7216 239.166C8.7006 239.416 6.56128 242.849 6.56128 242.849Z" stroke="black" stroke-width="0.5"/>
<path d="M21.3033 243.105L21.1437 252.282L30.1527 252.438L29.8956 243.672C29.8956 243.672 27.6148 239.366 25.4637 239.422C23.3125 239.478 21.3033 243.105 21.3033 243.105Z" stroke="black" stroke-width="0.5"/>
<path d="M211.86 191.357L211.701 200.534L220.3 200.683L220.453 191.924C220.453 191.924 218.042 187.424 216.021 187.674C214 187.925 211.86 191.357 211.86 191.357Z" fill="#5A5A79"/>
<path d="M226.602 191.614L226.443 200.79L235.452 200.947L235.195 192.18C235.195 192.18 232.914 187.875 230.763 187.931C228.612 187.987 226.602 191.614 226.602 191.614Z" fill="#5A5A79"/>
<path d="M211.86 191.357L211.701 200.534L220.3 200.683L220.453 191.924C220.453 191.924 218.042 187.424 216.021 187.674C214 187.925 211.86 191.357 211.86 191.357Z" stroke="black" stroke-width="0.5"/>
<path d="M226.602 191.614L226.443 200.79L235.452 200.947L235.195 192.18C235.195 192.18 232.914 187.875 230.763 187.931C228.612 187.987 226.602 191.614 226.602 191.614Z" stroke="black" stroke-width="0.5"/>
<path d="M81.6387 189.091L81.479 198.268L90.0786 198.418L90.2309 189.658C90.2309 189.658 87.82 185.158 85.799 185.409C83.778 185.659 81.6387 189.091 81.6387 189.091Z" fill="#5A5A79"/>
<path d="M96.3807 189.348L96.2211 198.525L105.23 198.681L104.973 189.915C104.973 189.915 102.692 185.609 100.541 185.665C98.3899 185.721 96.3807 189.348 96.3807 189.348Z" fill="#5A5A79"/>
<path d="M81.6387 189.091L81.479 198.268L90.0786 198.418L90.2309 189.658C90.2309 189.658 87.82 185.158 85.799 185.409C83.778 185.659 81.6387 189.091 81.6387 189.091Z" stroke="black" stroke-width="0.5"/>
<path d="M96.3807 189.348L96.2211 198.525L105.23 198.681L104.973 189.915C104.973 189.915 102.692 185.609 100.541 185.665C98.3899 185.721 96.3807 189.348 96.3807 189.348Z" stroke="black" stroke-width="0.5"/>
<path d="M263.96 116.305L263.836 123.403L270.36 123.516L270.478 116.742C270.478 116.742 268.65 113.262 267.117 113.456C265.583 113.65 263.96 116.305 263.96 116.305Z" fill="#5A5A79"/>
<path d="M275.143 116.5L275.02 123.597L281.854 123.716L281.661 116.936C281.661 116.936 279.932 113.607 278.3 113.651C276.668 113.694 275.143 116.5 275.143 116.5Z" fill="#5A5A79"/>
<path d="M263.96 116.305L263.836 123.403L270.36 123.516L270.478 116.742C270.478 116.742 268.65 113.262 267.117 113.456C265.583 113.65 263.96 116.305 263.96 116.305Z" stroke="black" stroke-width="0.5"/>
<path d="M275.143 116.5L275.02 123.597L281.854 123.716L281.661 116.936C281.661 116.936 279.932 113.607 278.3 113.651C276.668 113.694 275.143 116.5 275.143 116.5Z" stroke="black" stroke-width="0.5"/>
<path d="M286.906 115.879L286.768 123.804L292.911 123.911L293.048 115.986C293.048 115.986 291.183 113.781 289.809 113.843C288.434 113.906 286.906 115.879 286.906 115.879Z" fill="#5A5A79" stroke="black" stroke-width="0.5"/>
<path d="M40.2338 285.158L38.9172 337.291L50.3924 336.967L51.3049 284.517C51.3049 284.517 49.5603 279.584 46.8947 279.016C43.4617 278.283 40.2338 285.158 40.2338 285.158Z" fill="#5A5A79" stroke="black" stroke-width="0.5"/>
<path d="M59.9037 284.712L58.5871 336.845L70.0623 336.521L70.9748 284.07C70.9748 284.07 69.2302 279.138 66.5646 278.569C63.1316 277.837 59.9037 284.712 59.9037 284.712Z" fill="#5A5A79" stroke="black" stroke-width="0.5"/>
<path d="M247.506 332.159L237.678 331.988C237.678 331.988 237.285 321.3 237.164 314.454C237.043 307.608 237.066 296.512 237.066 296.512C237.066 296.512 239.933 291.88 242.879 292.023C245.6 292.156 248.123 296.704 248.123 296.704L247.506 332.159Z" fill="#5A5A79" stroke="black" stroke-width="0.5"/>
<path d="M264.713 332.041L254.065 331.856C254.065 331.856 254.498 320.764 254.377 313.919C254.257 307.073 254.682 296.401 254.682 296.401C254.682 296.401 257.14 291.762 260.086 291.905C262.806 292.038 265.329 296.586 265.329 296.586L264.713 332.041Z" fill="#5A5A79" stroke="black" stroke-width="0.5"/>
<path d="M300.446 332.663L289.798 332.478C289.798 332.478 290.231 321.386 290.111 314.541C289.99 307.695 290.415 297.023 290.415 297.023C290.415 297.023 292.873 292.384 295.819 292.527C298.539 292.66 301.062 297.208 301.062 297.208L300.446 332.663Z" fill="#5A5A79" stroke="black" stroke-width="0.5"/>
<path d="M283.246 332.364L272.599 332.179C272.599 332.179 273.032 321.087 272.911 314.241C272.791 307.395 273.216 296.724 273.216 296.724C273.216 296.724 275.674 292.085 278.62 292.228C281.34 292.36 283.863 296.909 283.863 296.909L283.246 332.364Z" fill="#5A5A79" stroke="black" stroke-width="0.5"/>
<path d="M144.706 166.392L134.059 166.207L134.64 132.838C134.64 132.838 137.32 128.295 140.043 128.342C142.767 128.389 145.287 133.023 145.287 133.023L144.706 166.392Z" fill="#5A5A79"/>
<path d="M153.887 133.173L153.306 166.542L163.544 166.72L164.124 133.351C164.124 133.351 161.604 128.607 158.88 128.67C156.277 128.73 153.887 133.173 153.887 133.173Z" fill="#5A5A79"/>
<path d="M173.133 133.507L172.553 166.877L183.2 167.062L183.78 133.693C183.78 133.693 181.26 129.059 178.536 129.012C175.813 128.964 173.133 133.507 173.133 133.507Z" fill="#5A5A79"/>
<path d="M144.706 166.392L134.059 166.207L134.64 132.838C134.64 132.838 137.32 128.295 140.043 128.342C142.767 128.389 145.287 133.023 145.287 133.023L144.706 166.392Z" stroke="black" stroke-width="0.5"/>
<path d="M153.887 133.173L153.306 166.542L163.544 166.72L164.124 133.351C164.124 133.351 161.604 128.607 158.88 128.67C156.277 128.73 153.887 133.173 153.887 133.173Z" stroke="black" stroke-width="0.5"/>
<path d="M173.133 133.507L172.553 166.877L183.2 167.062L183.78 133.693C183.78 133.693 181.26 129.059 178.536 129.012C175.813 128.964 173.133 133.507 173.133 133.507Z" stroke="black" stroke-width="0.5"/>
<path d="M10.5807 223.725L10.6605 219.137L14.346 219.201L14.2662 223.789L10.5807 223.725Z" fill="#6E3C24" stroke="black" stroke-width="0.2"/>
<path d="M16.3136 223.825L16.3934 219.237L20.0789 219.301L19.9991 223.889L16.3136 223.825Z" fill="#6E3C24" stroke="black" stroke-width="0.2"/>
<path d="M22.0467 223.925L22.1266 219.336L25.8121 219.401L25.7323 223.989L22.0467 223.925Z" fill="#6E3C24" stroke="black" stroke-width="0.2"/>
<path d="M216.304 171.393L216.384 166.805L220.069 166.869L219.989 171.458L216.304 171.393Z" fill="#6E3C24" stroke="black" stroke-width="0.5"/>
<path d="M222.037 171.493L222.117 166.905L225.802 166.969L225.722 171.557L222.037 171.493Z" fill="#6E3C24" stroke="black" stroke-width="0.5"/>
<path d="M227.77 171.593L227.85 167.005L231.535 167.069L231.455 171.657L227.77 171.593Z" fill="#6E3C24" stroke="black" stroke-width="0.5"/>
<path d="M86.9012 169.142L86.9811 164.554L90.6666 164.618L90.5868 169.206L86.9012 169.142Z" fill="#6E3C24" stroke="black" stroke-width="0.5"/>
<path d="M92.6344 169.242L92.7142 164.654L96.3997 164.718L96.3199 169.306L92.6344 169.242Z" fill="#6E3C24" stroke="black" stroke-width="0.5"/>
<path d="M98.3673 169.342L98.4471 164.753L102.133 164.818L102.053 169.406L98.3673 169.342Z" fill="#6E3C24" stroke="black" stroke-width="0.5"/>
<path d="M140.254 281.054L139.289 336.531L181.899 336.02L182.944 275.955C182.944 275.955 180.885 253.017 162.795 256.832C144.705 260.648 140.254 281.054 140.254 281.054Z" fill="#5A5A79" stroke="black" stroke-width="0.5"/>
<path d="M139.482 89.9459L139.657 79.9351L145.39 80.0348L145.215 90.0456L139.482 89.9459Z" fill="#864B44" stroke="black" stroke-width="0.5"/>
<path d="M175.519 90.5729L175.693 80.562L181.426 80.6618L181.252 90.6726L175.519 90.5729Z" fill="#864B44" stroke="black" stroke-width="0.5"/>
<path d="M164.053 90.3734L164.227 80.3625L169.96 80.4623L169.786 90.4731L164.053 90.3734Z" fill="#864B44" stroke="black" stroke-width="0.5"/>
<path d="M151.768 90.1598L151.942 80.1489L157.675 80.2487L157.501 90.2595L151.768 90.1598Z" fill="#864B44" stroke="black" stroke-width="0.5"/>
<path d="M137.202 103.258L137.333 95.75L143.885 95.864L143.755 103.372L137.202 103.258Z" fill="#E4A26F" stroke="#E4A26F" stroke-width="0.5"/>
<path d="M176.105 103.935L176.236 96.427L182.788 96.541L182.657 104.049L176.105 103.935Z" fill="#E4A26F" stroke="#E4A26F" stroke-width="0.5"/>
<path d="M156.449 103.593L156.594 95.2507L163.965 95.379L163.82 103.721L156.449 103.593Z" fill="#E4A26F" stroke="#E4A26F" stroke-width="0.5"/>
<path d="M140.252 281.058L139.287 336.534L127.002 336.321C127.002 336.321 127.761 274.132 128.112 272.502C129.005 268.345 132.619 260.28 137.42 255.556C142.222 250.833 147.379 248.219 157.207 248.39C166.717 248.556 175.004 258.053 177.935 261.84C178.698 262.731 179.064 263.374 179.064 263.374C179.064 263.374 178.666 262.785 177.935 261.84C175.407 258.886 168.523 253.21 156.197 259.221C143.806 265.264 140.252 281.058 140.252 281.058Z" fill="#E2A272"/>
<path d="M139.287 336.534L140.252 281.058C140.252 281.058 143.806 265.264 156.197 259.221C172.242 251.397 179.064 263.374 179.064 263.374C179.064 263.374 169.09 248.597 157.207 248.39C147.379 248.219 142.222 250.833 137.42 255.556C132.619 260.28 129.005 268.345 128.112 272.502C127.761 274.132 127.002 336.321 127.002 336.321L139.287 336.534Z" stroke="black" stroke-width="0.5"/>
<path d="M235.719 278.963L235.85 271.455L313.669 272.809L307.82 279.383L235.719 278.963Z" fill="#F3B897"/>
<path d="M236.212 251.434L235.871 271.038L313.676 272.392C313.676 272.392 307.7 268.026 304.805 264.31C301.91 260.593 298.851 253.358 298.851 253.358L236.212 251.434Z" fill="#4B5FA7" stroke="#4B5FA7" stroke-width="0.5"/>
<path d="M134.086 94.0245L136.924 95.7429L136.786 103.668L143.747 103.789L143.922 93.7784L156.207 93.9921L156.033 104.003L163.813 104.138L163.987 94.1275L176.272 94.3412L176.098 104.352L183.06 104.473L183.234 94.4623L194.261 96.3232" stroke="black"/>
<path d="M80.0829 254.976L90.7299 255.161" stroke="#987353" stroke-width="2"/>
<path d="M92.3307 304.424L102.978 304.609" stroke="#987353" stroke-width="2"/>
<path d="M75.5006 330L86.1476 330.186" stroke="#987353" stroke-width="2"/>
<path d="M93.6493 322.806L104.296 322.991" stroke="#987353" stroke-width="2"/>
<path d="M79.8859 313.387L90.5329 313.572" stroke="#987353" stroke-width="2"/>
<path d="M76.0377 299.134L86.6847 299.319" stroke="#987353" stroke-width="2"/>
<path d="M83.6119 287.583L94.259 287.768" stroke="#987353" stroke-width="2"/>
<path d="M92.766 279.397L103.413 279.582" stroke="#987353" stroke-width="2"/>
<path d="M76.5165 271.604L87.1635 271.789" stroke="#987353" stroke-width="2"/>
<path d="M91.3749 265.187L102.022 265.372" stroke="#987353" stroke-width="2"/>
<path d="M91.7377 244.331L102.385 244.516" stroke="#987353" stroke-width="2"/>
<path d="M80.4747 232.452L91.1218 232.637" stroke="#987353" stroke-width="2"/>
<path d="M78.1884 175.501C77.6362 175.491 77.1808 175.931 77.1712 176.483C77.1616 177.036 77.6014 177.491 78.1536 177.501L78.171 176.501L78.1884 175.501ZM110.095 178.056L111.095 178.074L111.129 176.074L110.13 176.057L110.112 177.056L110.095 178.056ZM78.171 176.501L78.1536 177.501L110.095 178.056L110.112 177.056L110.13 176.057L78.1884 175.501L78.171 176.501Z" fill="#987353"/>
<path d="M207.182 177.745C206.629 177.735 206.174 178.175 206.164 178.727C206.155 179.28 206.595 179.735 207.147 179.745L207.164 178.745L207.182 177.745ZM238.678 180.293L239.678 180.311L239.713 178.311L238.713 178.294L238.696 179.293L238.678 180.293ZM207.164 178.745L207.147 179.745L238.678 180.293L238.696 179.293L238.713 178.294L207.182 177.745L207.164 178.745Z" fill="#987353"/>
<path d="M94.0143 207.653L104.661 207.838" stroke="#987353" stroke-width="2"/>
<path d="M5.88536 328.789L16.5324 328.975" stroke="#987353" stroke-width="2"/>
<path d="M19.8954 324.026L30.5424 324.211" stroke="#987353" stroke-width="2"/>
<path d="M6.17565 312.104L16.8227 312.29" stroke="#987353" stroke-width="2"/>
<path d="M22.7589 300.71L33.4059 300.895" stroke="#987353" stroke-width="2"/>
<path d="M6.55309 290.415L17.2001 290.6" stroke="#987353" stroke-width="2"/>
<path d="M6.90148 270.393L17.5485 270.578" stroke="#987353" stroke-width="2"/>
<path d="M24.7452 280.717L35.3923 280.902" stroke="#987353" stroke-width="2"/>
<path d="M51.1129 271.996L61.7599 272.182" stroke="#987353" stroke-width="2"/>
<path d="M224.574 331.76L235.221 331.945" stroke="#987353" stroke-width="2"/>
<path d="M208.411 318.961L219.059 319.146" stroke="#987353" stroke-width="2"/>
<path d="M222.523 308.358L233.17 308.543" stroke="#987353" stroke-width="2"/>
<path d="M207.122 298.911L217.769 299.096" stroke="#987353" stroke-width="2"/>
<path d="M222.023 289.99L232.67 290.176" stroke="#987353" stroke-width="2"/>
<path d="M224.018 222.432L234.665 222.617" stroke="#987353" stroke-width="2"/>
<path d="M209.921 232.2L220.568 232.385" stroke="#987353" stroke-width="2"/>
<path d="M222.793 245.776L233.44 245.961" stroke="#987353" stroke-width="2"/>
<path d="M210.362 253.905L221.009 254.09" stroke="#987353" stroke-width="2"/>
<path d="M221.625 265.783L232.272 265.969" stroke="#987353" stroke-width="2"/>
<path d="M221.625 265.783L232.272 265.969" stroke="#987353" stroke-width="2"/>
<path d="M283.55 285.219L294.197 285.405" stroke="#987353" stroke-width="2"/>
<path d="M262.213 287.352L272.86 287.537" stroke="#987353" stroke-width="2"/>
<path d="M242.6 284.507L253.247 284.692" stroke="#987353" stroke-width="2"/>
<path d="M209.195 273.912L219.842 274.097" stroke="#987353" stroke-width="2"/>
<path d="M328.805 321.055L339.452 321.241" stroke="#987353" stroke-width="2"/>
<path d="M323.348 305.105L333.995 305.29" stroke="#987353" stroke-width="2"/>
<path d="M337.488 292.834L348.135 293.019" stroke="#987353" stroke-width="2"/>
<path d="M323.71 284.249L334.357 284.434" stroke="#987353" stroke-width="2"/>
<path d="M332.894 274.395L343.541 274.58" stroke="#987353" stroke-width="2"/>
<path d="M324.907 262.573L335.554 262.758" stroke="#987353" stroke-width="2"/>
<path d="M338.96 255.307L349.607 255.493" stroke="#987353" stroke-width="2"/>
<path d="M325.255 242.552L335.902 242.737" stroke="#987353" stroke-width="2"/>
<path d="M339.352 232.783L349.999 232.968" stroke="#987353" stroke-width="2"/>
<path d="M328.06 222.573L338.707 222.758" stroke="#987353" stroke-width="2"/>
<path d="M338.867 213.581L349.514 213.767" stroke="#987353" stroke-width="2"/>
<path d="M322.574 208.291L333.221 208.476" stroke="#987353" stroke-width="2"/>
<path d="M336.671 198.522L347.318 198.707" stroke="#987353" stroke-width="2"/>
<path d="M310.463 198.066L321.11 198.252" stroke="#987353" stroke-width="2"/>
<path d="M326.213 187.492L336.86 187.677" stroke="#987353" stroke-width="2"/>
<path d="M340.6 161.039L351.247 161.224" stroke="#987353" stroke-width="2"/>
<path d="M326.561 167.47L337.208 167.655" stroke="#987353" stroke-width="2"/>
<path d="M341.934 178.586L352.581 178.771" stroke="#987353" stroke-width="2"/>
<path d="M212.712 213.056L223.359 213.241" stroke="#987353" stroke-width="2"/>
<path d="M80.7359 217.436L91.383 217.621" stroke="#987353" stroke-width="2"/>
<path d="M92.8905 225.157L103.538 225.342" stroke="#987353" stroke-width="2"/>
</svg>
