<svg width="200" height="240" viewBox="0 0 200 240" fill="none" xmlns="http://www.w3.org/2000/svg">
<path d="M40 65C40 62.2386 37.7614 60 35 60C32.2386 60 30 62.2386 30 65V205C30 207.761 32.2386 210 35 210C37.7614 210 40 207.761 40 205V65Z" fill="#5D4037"/>
<path d="M34.9999 30C34.9999 30 19.9999 45 24.9999 55C29.9999 65 39.9999 65 44.9999 55C49.9999 45 34.9999 30 34.9999 30Z" fill="#FF5722"/>
<path d="M35 35C35 35 28 45 30 50C32 55 38 55 40 50C42 45 35 35 35 35Z" fill="#FFC107"/>
<path d="M60 90C60 90 40 220 50 230H150C160 220 140 90 140 90" fill="#3B82F6"/>
<path d="M150 230H50V240H150V230Z" fill="#1D4ED8"/>
<path d="M138 160H62C60.8954 160 60 160.895 60 162V173C60 174.105 60.8954 175 62 175H138C139.105 175 140 174.105 140 173V162C140 160.895 139.105 160 138 160Z" fill="#78350F"/>
<path d="M108 158H92C90.8954 158 90 158.895 90 160V176C90 177.105 90.8954 178 92 178H108C109.105 178 110 177.105 110 176V160C110 158.895 109.105 158 108 158Z" fill="#FCD34D"/>
<path d="M160 140C165.523 140 170 135.523 170 130C170 124.477 165.523 120 160 120C154.477 120 150 124.477 150 130C150 135.523 154.477 140 160 140Z" fill="#FCD0B4"/>
<path d="M160 127C166.627 127 172 121.627 172 115C172 108.373 166.627 103 160 103C153.373 103 148 108.373 148 115C148 121.627 153.373 127 160 127Z" fill="#FDBA74" fill-opacity="0.6"/>
<path d="M160 123C164.418 123 168 119.418 168 115C168 110.582 164.418 107 160 107C155.582 107 152 110.582 152 115C152 119.418 155.582 123 160 123Z" fill="white"/>
<path d="M160 130C168.284 130 175 123.284 175 115C175 106.716 168.284 100 160 100C151.716 100 145 106.716 145 115C145 123.284 151.716 130 160 130Z" stroke="#FDBA74" stroke-width="2" stroke-dasharray="4 4"/>
<path d="M40 140C45.5228 140 50 135.523 50 130C50 124.477 45.5228 120 40 120C34.4772 120 30 124.477 30 130C30 135.523 34.4772 140 40 140Z" fill="#FCD0B4"/>
<path d="M100 120C116.569 120 130 106.569 130 90C130 73.4315 116.569 60 100 60C83.4315 60 70 73.4315 70 90C70 106.569 83.4315 120 100 120Z" fill="#FCD0B4"/>
<path d="M90 90C91.6569 90 93 87.7614 93 85C93 82.2386 91.6569 80 90 80C88.3431 80 87 82.2386 87 85C87 87.7614 88.3431 90 90 90Z" fill="black"/>
<path d="M110 90C111.657 90 113 87.7614 113 85C113 82.2386 111.657 80 110 80C108.343 80 107 82.2386 107 85C107 87.7614 108.343 90 110 90Z" fill="black"/>
<path d="M95 100C98.3333 103.333 101.667 103.333 105 100" stroke="black" stroke-width="2" stroke-linecap="round"/>
<path d="M100 80C127.614 80 150 75.5228 150 70C150 64.4772 127.614 60 100 60C72.3858 60 50 64.4772 50 70C50 75.5228 72.3858 80 100 80Z" fill="#1E3A8A"/>
<path d="M65 70L90 10L110 5L135 70H65Z" fill="#3B82F6"/>
<path d="M90 10L80 0L100 5L90 10Z" fill="#3B82F6"/>
<path d="M130 60H70V68H130V60Z" fill="#F97316"/>
<path d="M97.5 144.5L76 106L100 113L124 106L97.5 144.5Z" fill="white" stroke="white" stroke-width="2"/>
</svg>
