<svg width="805" height="171" viewBox="0 0 805 171" fill="none" xmlns="http://www.w3.org/2000/svg">
<g opacity="0.28">
<path d="M0.5 157.5V142H6.5V135.5H12.5V128H20V122.5H35.5V129H41.5V134.5H45.5V128H52.5V122.5H59.5V115H65V108.5H94V115H101V122.5H107.5V128H114V135.5H121V156.5H114V163H6.5V157.5H0.5Z" fill="white" stroke="black"/>
<path d="M489.5 49.5V34H495.5V27.5H501.5V20H509V14.5H524.5V21H530.5V26.5H534.5V20H541.5V14.5H548.5V7H554V0.5H583V7H590V14.5H596.5V20H603V27.5H610V48.5H603V55H495.5V49.5H489.5Z" fill="white" stroke="black"/>
<path d="M114.5 49.5V33.5H121.5V26.5H127.5V19.5H134V14H156V19.5H168.5V26.5H173.5V21H179.5V14H186V6.5H193.5V0.5H234.5V6.5H241.5V14H247.5V19.5H253V14H275V19.5H281V33.5H287.5V55H281V62H261.5V69H202V62H176V69H134V62H121.5V49.5H114.5Z" fill="white" stroke="black"/>
<path d="M301.5 150.5V134.5H308.5V127.5H314.5V120.5H321V115H343V120.5H355.5V127.5H360.5V122H366.5V115H373V107.5H380.5V101.5H421.5V107.5H428.5V115H434.5V120.5H440V115H462V120.5H468V134.5H474.5V156H468V163H448.5V170H389V163H363V170H321V163H308.5V150.5H301.5Z" fill="white" stroke="black"/>
<path d="M631.5 143.5V127.5H638.5V120.5H644.5V113.5H651V108H673V113.5H685.5V120.5H690.5V115H696.5V108H703V100.5H710.5V94.5H751.5V100.5H758.5V108H764.5V113.5H770V108H792V113.5H798V127.5H804.5V149H798V156H778.5V163H719V156H693V163H651V156H638.5V143.5H631.5Z" fill="white" stroke="black"/>
</g>
</svg>
