<svg width="153" height="240" viewBox="0 0 153 240" fill="none" xmlns="http://www.w3.org/2000/svg">
<path d="M16.0205 65C16.0205 62.2386 13.7819 60 11.0205 60C8.25908 60 6.02051 62.2386 6.02051 65V205C6.02051 207.761 8.25908 210 11.0205 210C13.7819 210 16.0205 207.761 16.0205 205V65Z" fill="#5D4037"/>
<path d="M11.0204 30C11.0204 30 -3.97959 45 1.02041 55C6.02041 65 16.0204 65 21.0204 55C26.0204 45 11.0204 30 11.0204 30Z" fill="#FF5722"/>
<path d="M11.0205 35C11.0205 35 4.02051 45 6.02051 50C8.02051 55 14.0205 55 16.0205 50C18.0205 45 11.0205 35 11.0205 35Z" fill="#FFC107"/>
<path d="M36.0205 90C36.0205 90 16.0205 220 26.0205 230H126.02C136.02 220 116.02 90 116.02 90" fill="#3B82F6"/>
<path d="M126.021 230H26.0205V240H126.021V230Z" fill="#D81D1D"/>
<path d="M114.021 160H38.0205C36.9159 160 36.0205 160.895 36.0205 162V173C36.0205 174.105 36.9159 175 38.0205 175H114.021C115.125 175 116.021 174.105 116.021 173V162C116.021 160.895 115.125 160 114.021 160Z" fill="#78350F"/>
<path d="M84.0205 158H68.0205C66.9159 158 66.0205 158.895 66.0205 160V176C66.0205 177.105 66.9159 178 68.0205 178H84.0205C85.1251 178 86.0205 177.105 86.0205 176V160C86.0205 158.895 85.1251 158 84.0205 158Z" fill="#FCD34D"/>
<path d="M136.021 140C141.543 140 146.021 135.523 146.021 130C146.021 124.477 141.543 120 136.021 120C130.498 120 126.021 124.477 126.021 130C126.021 135.523 130.498 140 136.021 140Z" fill="#FCD0B4"/>
<path d="M136.021 127C142.648 127 148.021 121.627 148.021 115C148.021 108.373 142.648 103 136.021 103C129.393 103 124.021 108.373 124.021 115C124.021 121.627 129.393 127 136.021 127Z" fill="#FDBA74" fill-opacity="0.6"/>
<path d="M136.021 123C140.439 123 144.021 119.418 144.021 115C144.021 110.582 140.439 107 136.021 107C131.602 107 128.021 110.582 128.021 115C128.021 119.418 131.602 123 136.021 123Z" fill="white"/>
<path d="M136.021 130C144.305 130 151.021 123.284 151.021 115C151.021 106.716 144.305 100 136.021 100C127.736 100 121.021 106.716 121.021 115C121.021 123.284 127.736 130 136.021 130Z" stroke="#FDBA74" stroke-width="2" stroke-dasharray="4 4"/>
<path d="M16.0205 140C21.5434 140 26.0205 135.523 26.0205 130C26.0205 124.477 21.5434 120 16.0205 120C10.4977 120 6.02051 124.477 6.02051 130C6.02051 135.523 10.4977 140 16.0205 140Z" fill="#FCD0B4"/>
<path d="M76.0205 120C92.5891 120 106.021 106.569 106.021 90C106.021 73.4315 92.5891 60 76.0205 60C59.452 60 46.0205 73.4315 46.0205 90C46.0205 106.569 59.452 120 76.0205 120Z" fill="#FCD0B4"/>
<path d="M66.0205 90C67.6774 90 69.0205 87.7614 69.0205 85C69.0205 82.2386 67.6774 80 66.0205 80C64.3637 80 63.0205 82.2386 63.0205 85C63.0205 87.7614 64.3637 90 66.0205 90Z" fill="black"/>
<path d="M86.0205 90C87.6774 90 89.0205 87.7614 89.0205 85C89.0205 82.2386 87.6774 80 86.0205 80C84.3637 80 83.0205 82.2386 83.0205 85C83.0205 87.7614 84.3637 90 86.0205 90Z" fill="black"/>
<path d="M71.0205 100C74.3538 103.333 77.6872 103.333 81.0205 100" stroke="black" stroke-width="2" stroke-linecap="round"/>
<path d="M76.0205 80C103.635 80 126.021 75.5228 126.021 70C126.021 64.4772 103.635 60 76.0205 60C48.4063 60 26.0205 64.4772 26.0205 70C26.0205 75.5228 48.4063 80 76.0205 80Z" fill="#1E3A8A"/>
<path d="M41.0205 70L66.0205 10L86.0205 5L111.021 70H41.0205Z" fill="#3B82F6"/>
<path d="M66.0205 10L56.0205 0L76.0205 5L66.0205 10Z" fill="#3B82F6"/>
<path d="M106.021 60H46.0205V68H106.021V60Z" fill="#F97316"/>
<path d="M73.5205 144.5L52.0205 106L76.0205 113L100.021 106L73.5205 144.5Z" fill="white" stroke="white" stroke-width="2"/>
<path d="M16.0205 65C16.0205 62.2386 13.7819 60 11.0205 60C8.25908 60 6.02051 62.2386 6.02051 65V205C6.02051 207.761 8.25908 210 11.0205 210C13.7819 210 16.0205 207.761 16.0205 205V65Z" fill="#5D4037"/>
<path d="M11.0204 30C11.0204 30 -3.97959 45 1.02041 55C6.02041 65 16.0204 65 21.0204 55C26.0204 45 11.0204 30 11.0204 30Z" fill="#FF5722"/>
<path d="M11.0205 35C11.0205 35 4.02051 45 6.02051 50C8.02051 55 14.0205 55 16.0205 50C18.0205 45 11.0205 35 11.0205 35Z" fill="#FFC107"/>
<path d="M36.0205 90C36.0205 90 16.0205 220 26.0205 230H126.02C136.02 220 116.02 90 116.02 90" fill="url(#paint0_linear_236_388)"/>
<path d="M114.021 160H38.0205C36.9159 160 36.0205 160.895 36.0205 162V173C36.0205 174.105 36.9159 175 38.0205 175H114.021C115.125 175 116.021 174.105 116.021 173V162C116.021 160.895 115.125 160 114.021 160Z" fill="#78350F"/>
<path d="M84.0205 158H68.0205C66.9159 158 66.0205 158.895 66.0205 160V176C66.0205 177.105 66.9159 178 68.0205 178H84.0205C85.1251 178 86.0205 177.105 86.0205 176V160C86.0205 158.895 85.1251 158 84.0205 158Z" fill="#FCD34D"/>
<path d="M136.021 140C141.543 140 146.021 135.523 146.021 130C146.021 124.477 141.543 120 136.021 120C130.498 120 126.021 124.477 126.021 130C126.021 135.523 130.498 140 136.021 140Z" fill="#FCD0B4"/>
<path d="M136.021 127C142.648 127 148.021 121.627 148.021 115C148.021 108.373 142.648 103 136.021 103C129.393 103 124.021 108.373 124.021 115C124.021 121.627 129.393 127 136.021 127Z" fill="#FDBA74" fill-opacity="0.6"/>
<path d="M136.021 123C140.439 123 144.021 119.418 144.021 115C144.021 110.582 140.439 107 136.021 107C131.602 107 128.021 110.582 128.021 115C128.021 119.418 131.602 123 136.021 123Z" fill="white"/>
<path d="M136.021 130C144.305 130 151.021 123.284 151.021 115C151.021 106.716 144.305 100 136.021 100C127.736 100 121.021 106.716 121.021 115C121.021 123.284 127.736 130 136.021 130Z" stroke="#FDBA74" stroke-width="2" stroke-dasharray="4 4"/>
<path d="M16.0205 140C21.5434 140 26.0205 135.523 26.0205 130C26.0205 124.477 21.5434 120 16.0205 120C10.4977 120 6.02051 124.477 6.02051 130C6.02051 135.523 10.4977 140 16.0205 140Z" fill="#FCD0B4"/>
<path d="M76.0205 120C92.5891 120 106.021 106.569 106.021 90C106.021 73.4315 92.5891 60 76.0205 60C59.452 60 46.0205 73.4315 46.0205 90C46.0205 106.569 59.452 120 76.0205 120Z" fill="#FCD0B4"/>
<path d="M66.0205 90C67.6774 90 69.0205 87.7614 69.0205 85C69.0205 82.2386 67.6774 80 66.0205 80C64.3637 80 63.0205 82.2386 63.0205 85C63.0205 87.7614 64.3637 90 66.0205 90Z" fill="black"/>
<path d="M86.0205 90C87.6774 90 89.0205 87.7614 89.0205 85C89.0205 82.2386 87.6774 80 86.0205 80C84.3637 80 83.0205 82.2386 83.0205 85C83.0205 87.7614 84.3637 90 86.0205 90Z" fill="black"/>
<path d="M71.0205 100C74.3538 103.333 77.6872 103.333 81.0205 100" stroke="black" stroke-width="2" stroke-linecap="round"/>
<path d="M76.0205 80C103.635 80 126.021 75.5228 126.021 70C126.021 64.4772 103.635 60 76.0205 60C48.4063 60 26.0205 64.4772 26.0205 70C26.0205 75.5228 48.4063 80 76.0205 80Z" fill="#FF0000"/>
<path d="M41.0205 70L66.0205 10L86.0205 5L111.021 70H41.0205Z" fill="#FF0000"/>
<path d="M66.0205 10L56.0205 0L76.0205 5L66.0205 10Z" fill="#FA0000"/>
<path d="M106.021 60H46.0205V68H106.021V60Z" fill="#F97316"/>
<path d="M73.5205 144.5L52.0205 106L76.0205 113L100.021 106L73.5205 144.5Z" fill="white" stroke="white" stroke-width="2"/>
<defs>
<linearGradient id="paint0_linear_236_388" x1="76.0205" y1="90" x2="76.0205" y2="230" gradientUnits="userSpaceOnUse">
<stop stop-color="#FF0000"/>
<stop offset="0.5" stop-color="#FFE100"/>
<stop offset="1" stop-color="#FF0000"/>
</linearGradient>
</defs>
</svg>
