<svg width="321" height="343" viewBox="0 0 321 343" fill="none" xmlns="http://www.w3.org/2000/svg">
<path d="M0.19464 317.755L117.835 171.628L167.676 221.167L0.19464 317.755Z" fill="white" stroke="black" stroke-width="0.5"/>
<path d="M185.059 100.796L125.957 169.858L166.73 215.845L195.086 180.871L243.26 250.315L320.407 26.6666L218.704 150.205L185.059 100.796Z" fill="white" stroke="black" stroke-width="0.5"/>
<path d="M32.6945 232.507C37.4055 196.933 95.6939 193.007 95.6939 193.007V49.5068H282.694V193.007C282.694 193.007 310.671 211.804 309.694 229.507C308.959 242.816 307.769 246.898 291.694 258.507C267.778 275.778 230.195 275.007 219.195 275.007C208.195 275.007 196.695 273.507 183.695 262.507C170.694 251.507 171.695 223.007 183.695 212.007C195.695 201.007 225.694 193.007 225.694 193.007V83.5068H151.194V193.007C151.194 193.007 171.026 214.419 170.694 232.507C170.308 253.535 158.694 268.007 140.694 272.507C122.694 277.007 112.194 277.007 87.1939 275.007C62.1938 273.007 27.9166 268.586 32.6945 232.507Z" fill="url(#paint0_linear_190_5)" stroke="black" stroke-width="0.5"/>
<defs>
<linearGradient id="paint0_linear_190_5" x1="309.719" y1="162.945" x2="32.2444" y2="162.945" gradientUnits="userSpaceOnUse">
<stop stop-color="#06B6D4"/>
<stop offset="0.5" stop-color="#34D399"/>
<stop offset="1" stop-color="#1DB954"/>
</linearGradient>
</defs>
</svg>
